<svg width="155" height="136" viewBox="0 0 155 136" fill="none" xmlns="http://www.w3.org/2000/svg">
<path fill-rule="evenodd" clip-rule="evenodd" d="M90.6431 136C126.195 136 131.235 120.183 136.626 117.277C142.017 114.37 138.665 108.538 142.201 104.138C147.848 97.1111 151.271 100.733 153.14 91.6162C155.009 82.4999 151.611 79.9209 151.611 71.7818C151.611 55.4749 159.423 47.7557 149.447 39.2237C139.471 30.6917 122.813 31.6984 106.337 31.6984C75.7558 31.6984 57.4355 -10.2231 16.648 2.35379C2.59176 6.68807 4.14527 12.5947 7.23383 33.4684C8.57503 42.5328 -1.55153 54.0574 0.205474 64.3582C3.41443 83.1714 11.8895 80.6193 27.8799 93.3215C30.5625 95.4524 34.4751 95.4304 37.3997 97.6159C42.3027 101.28 42.618 106.978 51.7842 110.82C66.5646 117.017 65.3108 136 90.6431 136Z" fill="#2155CD"/>
<ellipse cx="22.6771" cy="87.4375" rx="8.98855" ry="8.45241" fill="white"/>
<path fill-rule="evenodd" clip-rule="evenodd" d="M19.1521 57.301C17.6197 53.4741 18.9582 51.1813 19.8162 48.1882C20.5329 45.688 26.1375 41.6267 28.7169 45.8614C29.4757 47.1073 29.1713 48.2849 30.8298 49.3798C34.8446 52.0303 32.6544 46.5314 32.8037 45.1413C32.8765 44.4632 32.3036 42.8995 32.5169 42.2451C32.7407 41.5584 33.9335 40.5829 33.9335 39.1595C33.9335 37.7361 31.5071 37.188 30.8298 36.8382C24.8107 33.7305 20.9826 28.5398 22.8903 25.9054C25.5482 22.2351 35.9647 28.01 39.0945 28.5398C39.1351 28.5466 39.694 25.6286 40.1506 24.9604C41.064 23.6236 42.0735 22.3259 43.2779 21.2438C43.8174 20.759 44.5486 20.4598 45.2674 20.3628C47.4184 20.0726 49.6189 19.8346 51.7734 20.0975C52.5347 20.1904 57.0686 14.943 58.8365 13.2504C72.3999 0.264149 99.5896 16.0893 84.7688 37.5932C82.0447 41.5456 78.5614 42.8025 78.1115 44.1994C77.1123 47.3023 83.4029 46.8942 86.0675 47.2256C90.6198 47.7918 92.8634 50.1303 90.0375 54.1384C88.277 56.6353 77.9494 56.508 73.4254 54.7024C71.7463 54.0322 69.6711 51.102 68.0841 53.5057C66.9907 55.1618 62.7274 58.6756 58.154 60.6633C56.0896 61.5604 53.7384 61.0197 51.9769 61.8209C49.4973 62.9486 42.1774 67.6838 39.0945 67.6826C35.9897 67.6815 31.9719 63.9451 31.5071 63.7C30.7986 63.3264 25.3179 62.2557 22.6104 58.0775C21.7916 56.814 19.713 58.7018 19.1521 57.301Z" fill="white"/>
<ellipse cx="71.8692" cy="35.1164" rx="0.952171" ry="0.938558" fill="#FFB61D"/>
<circle cx="64.8976" cy="33.1572" r="0.924482" fill="#FFB61D"/>
<circle cx="132.253" cy="32.3647" r="12.5465" fill="white"/>
<ellipse cx="93.0217" cy="103.542" rx="36.4576" ry="31.1605" fill="white"/>
<path fill-rule="evenodd" clip-rule="evenodd" d="M62.1141 120.533L62.5232 120.829C61.5997 121.658 60.2104 120.627 59.4315 119.661C58.179 118.108 56.9079 116.458 56.5268 114.5C56.3099 113.385 56.3967 112.237 56.4843 111.105L56.8376 106.541C56.9942 104.519 57.1512 102.493 57.5013 100.495C58.4488 95.0878 60.8338 89.9392 64.3456 85.7198L64.3809 85.6775C65.001 84.9327 65.6783 84.1194 65.6663 83.1538C65.641 81.1108 66.8175 79.2017 68.3622 77.8644C69.9069 76.5271 71.7984 75.6688 73.6609 74.8288C74.5047 74.4482 75.6064 74.1073 76.2603 74.7624C77.6053 76.1098 79.85 75.2514 81.6266 74.5671C83.8078 73.7269 86.1376 73.2743 88.4747 73.2365L88.6804 73.2334C90.0836 73.2134 91.663 73.1909 92.5191 72.1037C93.0642 71.4115 94.1065 71.4516 94.9813 71.5562L100.998 72.2759C101.458 72.3309 102.009 72.4564 102.154 72.8963C102.543 74.0754 103.914 74.5566 105.102 74.915C109.328 76.1892 113.459 77.9193 117.047 80.4904C120.635 83.0616 123.667 86.5203 125.276 90.6306C122.66 87.0548 119.976 83.4116 116.346 80.8723C115.307 80.1456 114.201 79.5182 113.08 78.9269C110.432 77.5313 107.677 76.3283 104.815 75.4546C91.527 71.3988 76.1564 75.1604 66.2433 84.894C64.8059 86.3053 63.4582 87.8599 62.6431 89.702L63.7199 90.036C62.0132 90.7988 60.7455 92.4702 60.4711 94.3194C61.158 93.143 62.137 92.1386 63.2954 91.4218C62.9638 92.5294 62.1015 93.4193 61.2561 94.2918C60.1788 95.4036 59.1291 96.487 59.2405 97.9562C59.752 96.6137 61.0405 95.6005 62.4656 95.4199C60.2051 97.6285 57.7795 100.221 57.8515 103.38C58.676 101.556 60.0762 99.9964 61.8017 98.981L59.3175 102.319C58.3781 103.582 57.3887 105.024 57.6035 106.583C58.4207 105.117 59.5893 103.847 60.9835 102.911C60.3121 104.438 59.3535 105.838 58.1729 107.016C59.2957 106.881 60.3767 106.416 61.2472 105.694C60.8822 106.203 60.5534 106.778 60.5411 107.405C60.5288 108.031 60.9348 108.704 61.555 108.794C61.7427 108.374 62.3315 108.197 62.7198 108.443C61.5429 109.588 61.5308 111.71 62.6945 112.868C62.798 112.324 63.2573 111.865 63.8018 111.762C62.9338 113.28 62.7777 115.186 63.3873 116.824C63.5718 115.896 64.0869 115.037 64.8189 114.436C64.3969 116.639 63.4638 118.742 62.1141 120.533ZM61.5999 119.831C62.3348 119.824 62.7919 119.001 62.8685 118.27C62.9602 117.396 62.743 116.522 62.5275 115.67L61.2491 110.613C61.0085 110.69 60.9805 110.951 60.9513 111.226C60.9263 111.46 60.9003 111.703 60.7403 111.847C60.4167 111.444 60.38 110.835 60.6528 110.397C60.9283 109.954 60.7481 109.334 60.3573 108.989C59.9665 108.644 59.4227 108.527 58.9017 108.51C58.6201 108.501 58.3206 108.523 58.0902 108.685C57.8598 108.847 57.7385 109.191 57.9022 109.421C58.3894 110.103 58.7559 110.872 58.9798 111.68C58.9965 111.741 59.0127 111.802 59.029 111.863C59.1403 112.283 59.2547 112.714 59.5617 113.014C59.799 113.245 59.8595 113.598 59.9077 113.926L60.2983 116.582C60.3694 117.066 60.4405 117.559 60.3591 118.041C60.2778 118.523 60.0173 119.001 59.5802 119.22L60.9761 119.695C61.1786 119.764 61.386 119.833 61.5999 119.831ZM76.8154 76.2831C76.5404 76.3413 76.3097 76.0996 76.1128 75.8933L76.0901 75.8696C75.8883 75.6586 75.5412 75.4746 75.3286 75.6747C72.8511 78.0056 70.0317 79.9724 66.9888 81.4927C66.4365 81.7687 66.3623 82.5127 66.362 83.1301C66.3619 83.3363 66.5593 83.6257 66.688 83.4645C67.3154 82.6784 68.1313 82.0681 68.9377 81.4669C71.2068 79.7751 73.503 78.0676 76.1043 76.9522C76.4199 76.8169 76.7895 76.6255 76.8154 76.2831ZM101.717 73.6617C101.576 73.3323 101.177 73.2134 100.825 73.1471C99.8662 72.9665 98.8901 72.8846 97.915 72.8028C96.5758 72.6905 95.2385 72.5783 93.9498 72.2106C93.537 72.0928 93.1839 72.5112 92.9576 72.876C93.6367 72.8053 94.3202 72.7761 95.0028 72.7887C96.1911 72.8105 97.3729 72.9585 98.5521 73.1063C99.1514 73.1814 99.7548 73.2575 100.329 73.4434C100.396 73.465 100.464 73.4882 100.532 73.5114L100.532 73.5115C100.924 73.6462 101.329 73.7854 101.717 73.6617ZM89.0322 78.7262C89.3037 78.7882 89.5624 78.9911 89.603 79.2667C89.6434 79.5416 89.4556 79.8095 89.2156 79.9495C88.9756 80.0895 88.6919 80.1287 88.4164 80.1652L87.5873 80.275C87.5042 80.286 87.4185 80.2978 87.3464 80.3406C87.138 80.464 87.1524 80.7984 87.3228 80.9705C87.4932 81.1426 87.7546 81.1854 87.9968 81.1849C89.1247 81.1828 90.1924 80.3711 90.5369 79.2971C90.6188 79.042 90.662 78.7584 90.5607 78.5105C90.5093 78.3847 90.4235 78.2757 90.328 78.1789C89.8844 77.7293 89.2235 77.5312 88.5935 77.5757C87.9635 77.6202 87.3643 77.8886 86.8516 78.2574C86.6059 78.4342 86.3717 78.6413 86.2321 78.9099C86.0925 79.1785 86.0625 79.5196 86.2187 79.7788C86.2784 79.8777 86.3703 79.9654 86.4843 79.9839C86.5983 80.0025 86.7298 79.929 86.744 79.8144C86.7833 79.4959 87.0158 79.2268 87.2928 79.0649C87.5699 78.9029 87.8894 78.8318 88.2041 78.7688C88.4772 78.7142 88.7606 78.6641 89.0322 78.7262ZM66.8039 94.4816C67.1139 92.6484 68.5947 91.1581 70.3208 90.4674C71.272 90.0869 72.3605 89.92 73.3171 90.2867C73.5532 90.3772 73.7817 90.5021 73.9519 90.6891C74.1117 90.8648 74.2122 91.0865 74.2881 91.3116C74.7741 92.7531 74.2808 94.4202 73.2367 95.5266C72.1926 96.6329 70.6724 97.2133 69.155 97.3221C68.6689 97.3569 68.1469 97.3372 67.7455 97.061C67.344 96.7847 67.1447 96.1709 67.4538 95.7942C67.5999 95.8012 67.6787 95.9316 67.7594 96.0651C67.7993 96.1312 67.8398 96.1981 67.8891 96.2512C68.0575 96.4326 68.3363 96.4457 68.5836 96.4353C69.6595 96.39 70.7517 96.1234 71.6274 95.4967C72.5031 94.87 73.1324 93.8464 73.1139 92.7697C73.108 92.4228 73.0326 92.0679 72.836 91.7819C72.5134 91.3126 71.9034 91.1008 71.3351 91.1383C70.7668 91.1758 70.234 91.4278 69.7501 91.7281C69.1133 92.1234 68.5249 92.6201 68.1257 93.2544C67.7266 93.8887 67.5315 94.6728 67.7003 95.4029C67.5511 95.6721 67.1076 95.6184 66.9244 95.3711C66.7412 95.1238 66.7526 94.785 66.8039 94.4816ZM76.7126 109.59C75.9254 110.097 75.2728 110.89 75.1514 111.818C75.0532 112.569 75.3049 113.316 75.5529 114.032C75.7464 114.59 75.9465 115.161 76.3151 115.623C76.981 116.457 78.0836 116.802 79.1375 116.972C79.4245 117.018 79.86 116.888 79.7576 116.616C78.6449 116.596 77.5504 116.08 76.8263 115.235C76.1021 114.39 75.7602 113.229 75.9104 112.127C75.942 111.895 75.9949 111.664 76.0923 111.451C76.2894 111.02 76.657 110.689 77.0548 110.432C77.9111 109.879 78.9536 109.619 79.9694 109.707C80.9487 109.792 81.9271 110.221 82.5249 111.001C83.1228 111.782 83.2653 112.933 82.7378 113.762C82.652 113.897 82.5894 114.135 82.7467 114.164C83.5959 113.706 84.0673 112.697 84.0198 111.733C83.9722 110.77 83.4633 109.868 82.7642 109.203C82.3776 108.836 81.9197 108.525 81.4009 108.4C80.717 108.235 80.0015 108.405 79.3212 108.584C78.4159 108.822 77.4998 109.084 76.7126 109.59ZM115.371 110.787C112.525 109.725 109.432 109.328 106.41 109.64C105.142 109.77 103.871 110.029 102.732 110.599C100.582 111.675 99.0447 113.89 98.789 116.28C98.5332 118.67 99.567 121.16 101.44 122.666C102.151 123.238 102.957 123.665 103.765 124.094L103.765 124.094C104.316 124.386 104.868 124.679 105.39 125.017C105.539 125.16 105.203 125.302 105.007 125.239C103.181 124.65 101.408 123.753 100.106 122.344C98.5219 120.631 97.7492 118.197 98.0548 115.883C98.3604 113.569 99.7384 111.42 101.713 110.176C103.275 109.192 105.143 108.778 106.988 108.711C108.833 108.645 110.672 108.908 112.497 109.191C113.636 109.367 114.972 109.706 115.371 110.787ZM85.4209 114.354C85.2916 114.058 84.772 113.981 84.677 114.289C84.0732 116.254 82.1558 117.74 80.1023 117.834C79.6382 117.856 79.1737 117.812 78.7112 117.768C77.7151 117.671 76.6878 117.557 75.8156 117.067C74.5613 116.362 73.8065 114.914 73.7976 113.475C73.7887 112.036 74.4712 110.637 75.5076 109.639C75.3639 109.236 74.7462 109.431 74.4395 109.729C72.7397 111.381 72.448 114.233 73.6407 116.281C74.8334 118.33 77.3329 119.478 79.689 119.218C82.0451 118.957 84.1723 117.38 85.2676 115.277C85.4169 114.991 85.5501 114.65 85.4209 114.354ZM70.6665 124.304C70.2827 125.776 70.2463 127.337 70.561 128.825C70.7022 129.493 70.7176 129.86 70.7205 129.929L70.721 129.94L70.7211 129.941L70.7213 129.94L70.7219 129.929C70.725 129.86 70.7417 129.491 70.886 128.823C71.2079 127.332 71.1314 125.757 70.6665 124.304ZM72.7055 125.194C72.1602 126.337 72.2278 127.751 72.8796 128.837C73.0261 129.081 73.1371 129.279 73.2191 129.426C73.3294 129.622 73.3869 129.725 73.4068 129.718C73.4285 129.711 73.4054 129.573 73.357 129.284C73.3376 129.168 73.3141 129.029 73.2879 128.863L72.7055 125.194ZM74.2409 126.654C74.0094 127.383 74.1797 128.227 74.676 128.81C75.1828 129.405 75.3483 129.596 75.1939 128.83C75.0363 128.047 74.7089 127.3 74.2409 126.654ZM118.671 118.353C117.975 121.148 115.751 123.266 113.595 125.175C113.693 125.388 114.012 125.311 114.216 125.197C116.4 123.967 118.167 121.964 118.973 119.591C119.78 117.218 119.579 114.492 118.306 112.333C118.2 112.152 118.063 111.959 117.857 111.919C117.651 111.878 117.413 112.118 117.534 112.29C118.757 114.022 119.183 116.295 118.671 118.353ZM87.2718 93.1187C87.2666 92.6766 87.2728 92.1981 87.5398 91.8456C87.9073 91.3604 88.6048 91.3094 89.2135 91.3009C89.4851 91.2971 89.7601 91.2936 90.0244 91.3565C90.5872 91.4904 91.0356 91.9057 91.435 92.3242C91.5235 92.4169 91.6177 92.531 91.5958 92.6573C91.5687 92.8139 91.3725 92.8858 91.2169 92.8538C91.1133 92.8325 91.0205 92.7811 90.9274 92.7295C90.8806 92.7035 90.8336 92.6775 90.7852 92.6553C90.2255 92.3984 89.5677 92.68 89.065 93.0357C88.986 93.0915 88.9007 93.1633 88.8988 93.2601C88.8969 93.3573 88.9802 93.4327 89.0586 93.4901C89.738 93.9877 90.6077 94.2181 91.4443 94.1221C91.6443 94.0992 91.8793 94.0259 91.9312 93.8313C91.9515 93.7553 91.9436 93.6658 91.936 93.5794C91.9232 93.4349 91.9113 93.2989 92.0328 93.2487C92.096 93.2226 92.1678 93.2415 92.2335 93.2606C92.6863 93.3923 93.2158 93.604 93.3035 94.0673C93.3288 94.2012 93.3108 94.3407 93.2682 94.4701C93.1435 94.8489 92.7959 95.1447 92.4021 95.2073C92.2272 95.2351 92.0487 95.22 91.8723 95.2049C91.4115 95.1653 90.9502 95.1257 90.4935 95.0521C89.655 94.9171 88.8351 94.6672 88.0638 94.3118C87.7961 94.1884 87.518 94.0368 87.3823 93.7751C87.2793 93.5762 87.2744 93.3427 87.2718 93.1187ZM104.493 82.2164C104.223 81.488 103.572 80.9132 102.816 80.7361C102.582 80.6814 102.318 80.6679 102.12 80.8035C101.921 80.939 101.853 81.2695 102.042 81.4177C102.226 81.5614 102.115 81.8994 101.891 81.9633C101.666 82.0272 101.425 81.8751 101.313 81.6707C101.201 81.4663 101.189 81.2235 101.188 80.9904C101.186 80.6794 101.215 80.3325 101.445 80.1228C101.532 80.043 101.641 79.9915 101.749 79.9431C102.197 79.743 102.692 79.5734 103.17 79.6808C103.626 79.7832 103.989 80.1197 104.307 80.462C104.568 80.7428 104.814 81.0366 105.045 81.342C105.249 81.6112 105.445 81.8983 105.521 82.2271C105.598 82.5558 105.532 82.9373 105.278 83.1596C105.029 83.3772 104.647 83.3958 104.345 83.2614C104.078 83.1427 103.851 82.8814 103.871 82.5902C103.89 82.299 104.248 82.0575 104.493 82.2164ZM106.898 102.695C107.567 102.676 108.189 102.161 108.334 101.508C108.422 101.111 108.313 100.639 107.967 100.425C107.714 100.269 107.397 100.28 107.1 100.299C106.69 100.326 106.264 100.362 105.907 100.567C105.55 100.771 105.285 101.196 105.397 101.592C105.579 102.236 106.23 102.714 106.898 102.695ZM106.984 101.73C106.855 101.765 106.67 101.732 106.659 101.598C106.654 101.543 106.684 101.491 106.718 101.447C106.908 101.201 107.269 101.105 107.556 101.225C107.456 101.469 107.238 101.662 106.984 101.73ZM107.329 91.8393C107.22 91.5881 107.431 91.2953 107.688 91.199C107.893 91.1219 108.116 91.13 108.337 91.138C108.392 91.1399 108.447 91.1419 108.501 91.1426C108.775 91.1459 109.078 91.1004 109.255 90.892C109.318 90.8185 109.36 90.7104 109.313 90.6265C109.263 90.5388 109.145 90.5236 109.044 90.5184C108.346 90.4822 107.522 90.5037 107.12 91.0751C107.034 91.1979 106.822 91.1564 106.741 91.0298C106.66 90.9032 106.679 90.7371 106.725 90.5941C106.89 90.0821 107.363 89.7097 107.879 89.5604C108.396 89.4111 108.951 89.4581 109.476 89.5769C109.652 89.617 109.836 89.6697 109.965 89.797C110.068 89.898 110.125 90.0362 110.162 90.1751C110.341 90.8394 110.077 91.6003 109.526 92.0114C108.974 92.4225 108.17 92.4579 107.584 92.0969C107.48 92.0325 107.378 91.9519 107.329 91.8393ZM104.937 103.577C105.261 103.966 105.645 104.319 106.111 104.516C107.052 104.916 108.255 104.547 108.81 103.688C109.012 103.376 109.103 102.899 108.804 102.677C108.325 103.683 106.936 104.128 105.962 103.586C105.775 103.482 105.606 103.35 105.451 103.202C104.751 102.531 104.385 101.436 104.796 100.558C104.93 100.271 105.136 100.024 105.361 99.8018C105.852 99.3174 106.554 98.9208 107.209 99.1362C107.236 99.1451 107.263 99.1551 107.29 99.1651C107.382 99.1989 107.474 99.2328 107.571 99.2272C107.696 99.2199 107.826 99.108 107.794 98.987C107.785 98.9512 107.762 98.9202 107.74 98.891C107.335 98.3752 106.54 98.2159 105.968 98.5357C105.286 98.9164 104.594 99.3646 104.232 100.056C103.642 101.181 104.123 102.602 104.937 103.577ZM115.789 86.2234C115.759 86.2663 115.766 86.3261 115.774 86.3833C115.782 86.4512 115.79 86.5154 115.734 86.5429C115.531 86.6436 115.286 86.6332 115.069 86.5665C114.476 86.3844 114.078 85.8398 113.742 85.3178C113.546 85.0124 113.35 84.6882 113.319 84.3266C113.287 83.965 113.472 83.5579 113.82 83.4556C114.208 83.3417 114.589 83.6304 114.891 83.8995C115.232 84.2031 115.581 84.516 115.792 84.9209C116.003 85.3257 116.05 85.8488 115.789 86.2234ZM114.499 84.8686C114.582 84.9499 114.628 85.0592 114.674 85.1685C114.719 85.2762 114.764 85.384 114.846 85.4652C114.949 85.568 115.105 85.614 115.248 85.5834C114.981 85.1705 114.672 84.785 114.327 84.435C114.234 84.4627 114.227 84.5996 114.282 84.6783C114.316 84.7261 114.363 84.7613 114.41 84.7965C114.441 84.8193 114.471 84.8422 114.499 84.8686ZM63.7025 122.174C63.6696 122.715 63.7111 123.343 64.1448 123.67C64.2894 123.589 64.2795 123.383 64.2613 123.218C64.1494 122.205 64.4636 121.229 64.7799 120.246C65.0064 119.543 65.2339 118.836 65.3069 118.11C65.3281 117.9 65.2719 117.611 65.0603 117.603C64.9019 117.597 64.7997 117.764 64.7358 117.91C64.1434 119.255 63.7917 120.706 63.7025 122.174ZM105.771 102.631C106.26 102.847 106.803 103.068 107.315 102.912C107.518 102.851 107.7 102.733 107.878 102.617C107.877 102.916 107.62 103.167 107.333 103.253C107.046 103.338 106.738 103.293 106.445 103.229C106.12 103.159 105.723 102.96 105.771 102.631ZM67.0646 127.609C67.1894 127.387 67.2107 127.123 67.2292 126.869L67.3769 124.843C67.4494 123.848 67.5219 122.85 67.457 121.856C67.4488 121.73 67.436 121.598 67.3629 121.496C67.2897 121.394 67.1349 121.339 67.0347 121.415C66.961 121.471 66.9424 121.572 66.9296 121.663C66.7693 122.814 66.6836 123.974 66.6732 125.136C66.6657 125.978 66.7042 126.848 67.0646 127.609ZM64.8504 125.868C64.7206 125.978 64.5045 125.881 64.433 125.727C64.3615 125.573 64.3903 125.393 64.421 125.226C64.7416 123.478 65.1053 121.737 65.5116 120.006C65.5218 119.963 65.5328 119.918 65.5608 119.884C65.6678 119.751 65.884 119.884 65.9599 120.037C66.1462 120.41 66.057 120.855 65.9637 121.262L64.9623 125.63C64.9423 125.717 64.9186 125.81 64.8504 125.868ZM68.3187 125.946C68.2628 126.601 68.3611 127.259 68.4592 127.91C68.4941 128.142 68.661 128.45 68.8703 128.345L69.2784 123.981C69.295 123.804 69.3062 123.607 69.1961 123.467C69.086 123.327 68.8073 123.332 68.7722 123.507L68.4714 125.003C68.4086 125.315 68.3457 125.628 68.3187 125.946ZM110.453 112.573C109.291 111.975 107.878 111.739 106.671 112.24C105.77 112.614 103.222 114.231 102.883 116.303C102.656 117.69 102.659 119.107 103.144 120.446L103.222 120.656C103.367 121.035 103.827 121.471 104.085 121.158C103.333 119.798 103.193 118.115 103.709 116.65C104.225 115.185 105.389 113.961 106.827 113.373C107.13 113.25 107.446 113.152 107.771 113.121C108.429 113.059 109.086 113.272 109.675 113.574C110.941 114.223 112.511 115.302 113.114 116.591C113.695 117.834 114.123 119.317 113.597 120.584C113.071 121.851 109.615 122.768 109.615 122.768L109.998 123.466C109.998 123.466 111.932 123.085 113.114 122.224C118.073 118.612 111.564 113.145 110.453 112.573Z" fill="#00160A"/>
<path fill-rule="evenodd" clip-rule="evenodd" d="M22.7811 94.7374C21.0271 94.9255 19.1693 94.5197 17.7998 93.4078C16.8298 92.6203 16.1483 91.5248 15.67 90.3705C15.1508 89.1174 14.8523 87.7731 14.7923 86.418C14.7697 85.9078 14.7818 85.3882 14.9318 84.9C15.1785 84.0966 15.7727 83.4518 16.3793 82.8701C17.6698 81.6324 19.1867 80.5031 20.9557 80.2429C22.1611 80.0656 23.3874 80.3072 24.5673 80.6109C25.494 80.8494 26.4196 81.1306 27.2531 81.6006C29.095 82.639 30.3714 84.6198 30.556 86.7262C30.7407 88.8326 30.5135 90.2283 27.6709 92.8454C26.1938 93.8098 24.5352 94.5492 22.7811 94.7374ZM25.8743 88.1253C25.5898 88.2147 25.3063 88.3736 25.0126 88.3219C24.4126 88.2163 24.3052 87.3931 24.4385 86.7987C24.8198 85.0969 26.006 83.594 27.5726 82.8278C27.218 82.1845 26.2759 82.1372 25.6096 82.4464C24.9434 82.7556 24.4225 83.3127 23.7782 83.6653C23.4575 83.8408 23.0775 83.965 22.7287 83.8558C22.1547 83.676 21.9356 82.9242 22.1235 82.3528C22.3114 81.7815 22.7804 81.3551 23.2307 80.9564C21.599 81.0136 19.9843 81.5033 18.5958 82.3622C17.5087 83.0346 16.4776 84.137 16.6218 85.4071C17.5206 84.6836 18.5759 84.1556 19.6937 83.87C19.9309 83.8094 20.2284 83.7789 20.3768 83.9736C20.4892 84.121 20.4569 84.333 20.3849 84.5038C20.0276 85.3512 18.9768 85.6355 18.3251 86.2843C18.2395 86.3695 18.1575 86.4679 18.1367 86.5869C18.0961 86.82 18.3183 87.0326 18.5518 87.0716C18.7852 87.1105 19.0195 87.0255 19.241 86.942C19.7008 86.7685 20.1607 86.595 20.6205 86.4215C20.9534 86.2959 21.3487 86.176 21.6447 86.3734C21.951 86.5776 21.9798 87.0419 21.8068 87.3668C21.6337 87.6916 21.3159 87.9095 21.0102 88.1144C20.2732 88.6084 19.5362 89.1023 18.7992 89.5963C18.1822 90.0099 17.4909 90.5674 17.5495 91.3079C17.6047 92.0049 18.3715 92.4786 19.0693 92.4339C19.7671 92.3891 20.3811 91.9624 20.8961 91.4895C21.4111 91.0165 21.876 90.4765 22.474 90.1142C22.8643 89.8778 23.4211 89.7466 23.7381 90.0747C23.983 90.3282 23.9594 90.7358 23.8675 91.0761C23.6025 92.0569 22.8862 92.906 21.964 93.3323C22.7143 93.5054 23.4968 93.538 24.2589 93.4281C24.6936 93.3654 25.1436 93.2448 25.4579 92.9381C25.7722 92.6314 25.894 92.0916 25.6213 91.7473C25.2146 91.2338 25.2308 90.4824 25.4906 89.881C25.7504 89.2797 26.2146 88.7942 26.6692 88.3225C26.5391 88.0542 26.1588 88.0359 25.8743 88.1253ZM29.3482 89.291C29.7568 88.3465 29.7717 87.2784 29.6682 86.2546C29.5538 85.1223 29.159 83.8275 28.0923 83.4307C26.5292 84.0796 25.3228 85.527 24.9664 87.1815C24.9365 87.3205 24.913 87.47 24.9677 87.6013C25.0224 87.7326 25.185 87.8283 25.3109 87.7623C25.7431 87.5359 26.2746 87.4074 26.714 87.6196C27.1533 87.8318 27.3673 88.494 27.0115 88.8279C26.6185 89.1968 26.2148 89.5806 26.0027 90.0761C25.7906 90.5717 25.8212 91.2133 26.2205 91.5755C26.5205 91.8477 26.5212 92.3821 26.222 92.6552C27.0728 92.4066 27.679 91.6751 28.2307 90.9814C28.6525 90.4511 29.0791 89.9128 29.3482 89.291ZM19.5538 84.4069C18.6687 84.7739 17.8096 85.2035 16.985 85.6915C16.789 85.8075 16.5908 85.9303 16.4474 86.1074C16.2538 86.3465 16.1802 86.6586 16.1204 86.9604C15.9271 87.9354 15.8274 88.9852 16.2369 89.891C16.3676 90.1801 16.5462 90.4445 16.724 90.7073C16.7765 90.7849 16.836 90.8678 16.926 90.8939C17.0159 90.9201 17.1347 90.8475 17.1135 90.7563C17.0484 90.4752 17.2614 90.2106 17.4715 90.0128C18.7023 88.8543 20.3604 88.1893 21.4672 86.9118C21.2993 86.7129 20.9808 86.8064 20.7414 86.9086C20.1712 87.152 19.5833 87.3539 18.9838 87.5121C18.6746 87.5937 18.33 87.66 18.0478 87.5095C17.6347 87.2893 17.5675 86.6869 17.7857 86.2728C18.0038 85.8587 18.4186 85.5914 18.8186 85.3483C19.2186 85.1051 19.6382 84.8514 19.8782 84.4495C19.8345 84.3352 19.6668 84.36 19.5538 84.4069ZM22.5828 92.1676C22.9739 91.8533 23.3965 91.4827 23.4391 90.9828C23.4614 90.7214 23.2938 90.4017 23.0326 90.4266C22.9524 90.4343 22.8791 90.4741 22.8098 90.5154C21.6725 91.1949 20.924 92.5235 19.6409 92.8537C20.0035 93.016 20.3815 93.1437 20.7682 93.2345C20.8834 93.2616 21.0033 93.2854 21.1191 93.2614C21.2539 93.2335 21.3667 93.1447 21.4739 93.0585C21.8436 92.7615 22.2132 92.4645 22.5828 92.1676ZM23.6404 81.3059C23.3873 81.5858 23.1342 81.8658 22.8811 82.1457C22.6806 82.3674 22.4656 82.66 22.5772 82.9373C22.6594 83.1416 22.9021 83.2448 23.1217 83.2278C23.3412 83.2107 23.5412 83.0984 23.7253 82.9776C24.3815 82.5471 24.9722 81.9607 25.7379 81.7887C25.207 81.5952 24.6761 81.4018 24.1452 81.2083C24.0347 81.168 23.9114 81.1278 23.8026 81.1726C23.7373 81.1996 23.6877 81.2536 23.6404 81.3059Z" fill="#00160A"/>
<path fill-rule="evenodd" clip-rule="evenodd" d="M33.5198 47.869C33.4536 49.1954 32.4303 50.6318 31.1115 50.4749C30.5162 49.7865 30.0504 48.932 29.59 48.0876C28.7057 46.4658 27.8416 44.8809 26.12 44.58C24.4291 44.2846 22.8543 45.5282 21.8012 46.8838C20.2759 48.847 19.2903 51.2252 18.9796 53.6919C18.7969 55.142 19.3916 57.1531 20.8445 56.9935C22.504 56.8112 23.6842 58.1166 24.8846 59.4443C25.9956 60.6731 27.1239 61.9211 28.6655 62.0264C30.5011 62.1517 32.0004 63.2514 33.5182 64.3646C34.5318 65.108 35.5537 65.8575 36.6894 66.3267C38.8259 67.2094 41.2897 67.0387 43.4705 66.2721C45.6514 65.5055 47.5923 64.1852 49.4292 62.7818L49.5255 62.7082L49.5255 62.7081C50.5282 61.9413 51.5779 61.1385 52.8248 60.9696C59.2005 60.1059 65.1306 56.3662 68.6576 50.985C73.6579 54.9822 80.6492 56.3484 86.7864 54.5276C87.8277 54.2187 88.8757 53.8044 89.6479 53.0406C90.4202 52.2768 90.8581 51.0907 90.4785 50.073C90.0634 48.96 88.8228 48.3641 87.6437 48.2208C86.9974 48.1423 86.346 48.1655 85.6941 48.1887H85.694C85.1566 48.2079 84.6189 48.227 84.0835 48.1892C80.8417 47.96 78.1422 45.7241 75.6877 43.5941C79.2442 42.5031 82.1278 39.763 84.0319 36.5671C85.9359 33.3712 86.9564 29.7305 87.7316 26.092C88.1395 24.1773 88.4426 22.0204 87.3487 20.3968C86.8591 19.6702 86.1412 19.1389 85.4258 18.6095C84.6203 18.0133 83.8179 17.4195 83.3483 16.5518C82.445 14.8826 80.6843 13.8928 79.0143 12.9911C74.6439 10.6315 69.6238 8.20298 64.9137 9.77881C63.079 10.3926 61.4941 11.5688 59.9489 12.7329C57.3828 14.666 54.6339 16.9336 54.1454 20.1089C49.9468 18.2305 44.5149 19.7307 41.8754 23.4976C41.2717 24.3593 40.8082 25.3094 40.3452 26.2586L40.3452 26.2586C39.8 27.3761 39.2556 28.4923 38.4837 29.461C35.3835 28.0485 32.2247 26.7645 29.0181 25.6135C27.5965 25.1032 25.8982 24.6523 24.6731 25.5357C23.6907 26.244 23.3894 27.6343 23.6777 28.8106C23.9661 29.9869 24.7359 30.984 25.5614 31.8702C27.3524 33.7926 29.5037 35.3783 31.8701 36.52C31.9464 36.5568 32.0233 36.5934 32.1004 36.6302L32.1005 36.6302L32.1005 36.6302C32.8414 36.9832 33.6031 37.346 34.0965 37.994C34.6413 38.7093 34.675 39.9063 33.9114 40.381C32.7834 41.0821 32.5757 42.6552 32.8069 43.9631C32.8859 44.4099 33.0019 44.8526 33.1177 45.2946C33.3408 46.1463 33.5634 46.9958 33.5198 47.869ZM64.1435 54.8626C61.3012 57.847 57.3017 59.5929 53.212 60.1034C49.1224 60.6138 44.9464 59.9502 41.0398 58.6373C42.0906 58.6366 42.8505 57.2609 42.2915 56.371C40.1384 58.8809 36.8561 60.0564 33.7283 61.1298C30.9026 62.0995 27.5251 61.3952 25.4495 59.2465C23.3739 57.0978 22.8123 53.5723 24.2719 50.9657C24.9064 49.8327 25.9825 48.8465 27.2763 48.7353C28.5701 48.6241 29.9632 49.6969 29.8433 50.9899C29.1233 50.8647 28.3657 51.4763 28.336 52.2064C31.1212 51.9064 33.7396 50.3104 35.2826 47.9723C35.8152 47.1653 36.2199 46.2863 36.625 45.4066C36.8969 44.8159 37.1691 44.2248 37.4802 43.655C38.2546 42.2366 39.3665 40.8844 40.9073 40.3971C42.1439 40.0059 43.4807 40.223 44.7589 40.4433L50.4372 41.4224C50.8622 41.0555 50.1739 40.4675 49.6244 40.3527C47.8497 39.9819 46.0502 39.7534 44.2507 39.5249L44.2506 39.5249C42.5819 39.313 40.913 39.101 39.2636 38.7756C35.8354 38.0992 32.3898 36.8621 29.8946 34.416C31.5871 33.4423 32.8749 31.7877 33.4033 29.9079C33.5101 29.5277 33.2555 28.9029 32.9466 29.1493C32.5938 30.3696 32.2113 31.6423 31.3273 32.5545C30.4432 33.4667 28.8915 33.8674 27.8909 33.0848C26.5919 32.0689 25.2263 30.9606 24.7126 29.3936C24.1989 27.8266 25.0115 25.7222 26.6493 25.53C27.3845 25.4438 28.1031 25.7476 28.781 26.0447L35.6204 29.0427C37.6559 29.935 39.7218 30.8362 41.9206 31.16C43.4645 31.3873 45.0347 31.3235 46.5939 31.2592L51.014 31.0769C51.1948 31.0694 51.3801 31.061 51.5465 30.99C51.9906 30.8005 52.1412 30.2581 52.2392 29.7854C53.4254 24.0616 55.0191 18.0212 59.3305 14.074C61.2598 12.3078 63.663 11.0643 66.2191 10.5095C68.7387 9.96268 71.5187 10.1234 73.6879 11.517C70.049 11.7848 66.5156 13.3193 63.8357 15.7956C62.7098 14.5936 60.6142 15.5761 59.7161 16.9566C58.324 19.0967 58.3493 22.0696 59.7776 24.1857C60.9799 25.9669 61.4258 28.0922 61.8727 30.2224C62.2834 32.1802 62.695 34.1421 63.6954 35.845C65.2781 38.5389 68.2253 40.2681 71.3034 40.8041C74.3815 41.3402 77.5725 40.7803 80.498 39.6832C77.2238 42.9491 71.9932 44.0787 67.6631 42.4551C67.3474 42.3367 67.0334 42.2045 66.7191 42.0721C65.7241 41.6532 64.7258 41.2328 63.6586 41.2453C64.2838 41.9074 65.0823 42.4044 65.9524 42.6729C64.9492 44.3581 63.8966 46.0139 62.7964 47.6375C62.6557 47.8452 62.4954 48.0665 62.2546 48.1368C61.9862 48.215 61.706 48.0813 61.4614 47.9461C59.4387 46.8281 57.6258 45.3322 56.1441 43.5587L53.18 47.1642C54.7011 49.0236 56.4795 50.6722 58.4485 52.0483C55.8278 55.286 51.8571 57.3948 47.7071 57.7531C52.0029 57.9719 56.3519 55.957 58.9624 52.5384C60.6151 53.4663 62.3515 54.2452 64.1435 54.8626ZM77.7288 23.1581C78.678 22.1231 79.0298 20.6446 78.9486 19.2425C78.8675 17.8404 78.3959 16.492 77.874 15.1882C79.2337 15.027 80.6152 15.54 81.6983 16.3777C82.7814 17.2154 83.595 18.3552 84.2623 19.5508C85.0713 21.0002 85.6914 22.5674 85.9605 24.2053C86.5942 28.0618 85.2413 31.994 83.3155 35.3948C82.9416 36.0552 82.5392 36.711 81.9934 37.2382C81.4437 37.769 80.7675 38.1506 80.0745 38.4726C77.2149 39.8012 73.9255 40.1846 70.837 39.5493C72.8086 37.9078 74.201 35.6463 75.0878 33.239C75.9746 30.8316 76.3805 28.2729 76.6142 25.7181L76.6155 25.7038C76.6744 25.0595 76.7363 24.3825 77.1035 23.8505C77.225 23.6744 77.3755 23.5217 77.526 23.3689C77.5945 23.2994 77.663 23.2299 77.7288 23.1581ZM74.1609 33.7992C73.3101 35.7893 71.992 37.6166 70.2053 38.8378C69.996 38.9808 69.7713 39.1188 69.5196 39.1482C69.2973 39.1742 69.0748 39.113 68.8614 39.0456C67.3422 38.5661 65.9068 37.7161 64.9322 36.456C64.5785 35.9987 64.2898 35.4943 64.0322 34.9768C62.1564 31.2075 61.9726 26.6344 63.54 22.7268C63.6149 22.5401 63.722 22.3305 63.9193 22.2914C64.1744 22.2408 64.3702 22.5018 64.5135 22.7188C65.6843 24.4931 67.8737 25.3913 69.9974 25.4843C72.1211 25.5773 74.2102 24.9737 76.224 24.293C75.857 25.1905 75.7635 26.1682 75.6709 27.1367L75.6708 27.1375L75.6707 27.1383C75.6591 27.2597 75.6475 27.381 75.6354 27.502C75.4195 29.6555 75.0117 31.8092 74.1609 33.7992ZM73.7285 15.3116C74.8152 15.0646 76.0831 14.9966 76.9134 15.7399C77.1816 15.98 77.3808 16.288 77.5448 16.6084C78.5732 18.6182 78.1704 21.2652 76.5907 22.8781C74.7644 24.7427 71.874 25.0501 69.2735 24.8288C68.3403 24.7494 67.3807 24.6058 66.5841 24.1134C65.5534 23.4762 64.943 22.3535 64.3786 21.2813C66.8844 18.4813 70.0644 16.1446 73.7285 15.3116ZM82.5175 49.1125C82.1765 49.9733 81.8323 50.8459 81.7207 51.7651C81.6091 52.6843 81.7543 53.6707 82.3134 54.4088C77.6744 54.6654 72.9603 53.235 69.2461 50.4437C70.4438 48.7487 71.3897 46.8762 72.043 44.9063C72.3011 44.1282 73.2863 43.8036 74.0861 43.9838C74.8224 44.1496 75.4406 44.622 76.0436 45.0827C76.0956 45.1224 76.1474 45.162 76.1992 45.2014C78.1738 46.7005 80.3499 47.9092 82.5175 49.1125ZM50.1012 60.8685C49.3696 61.6921 48.4952 62.3759 47.602 63.0208C45.7377 64.3669 43.7047 65.5904 41.4387 65.9815C38.1178 66.5546 34.5301 65.1223 32.5169 62.4197L39.7602 59.7178C39.9336 59.6531 40.1132 59.5874 40.298 59.5978C40.4024 59.6037 40.5029 59.6337 40.6035 59.6637C40.6705 59.6837 40.7376 59.7037 40.806 59.7166C41.0385 59.7606 41.2731 59.722 41.5087 59.6832C41.6553 59.659 41.8023 59.6348 41.9495 59.6304C42.4917 59.6141 42.9899 59.8619 43.4829 60.1071C43.6081 60.1693 43.7329 60.2314 43.858 60.2889C45.7787 61.1722 47.9932 61.0292 50.1012 60.8685ZM39.6427 29.8775C39.5917 29.7633 39.6455 29.6319 39.6994 29.519C41.1827 26.4124 43.1451 23.535 45.4957 21.0198C47.1491 23.3156 48.2495 26.0067 48.6783 28.8032C48.764 29.3622 48.6714 30.1353 48.1102 30.2052C45.4203 30.5405 42.6833 30.4949 40.0061 30.0703C39.8645 30.0479 39.7012 30.0083 39.6427 29.8775ZM49.7737 29.6859C49.2198 26.641 48.07 23.7057 46.4085 21.0947C47.8148 20.3543 49.4774 20.3422 51.0667 20.3472C52.0705 20.3503 53.1662 20.3857 53.9312 21.0356L51.9469 26.8904C51.6101 27.8843 51.269 28.9061 51.3114 29.9547L50.0572 29.9748C50.0125 29.9755 49.9664 29.976 49.9251 29.9588C49.8248 29.9169 49.7932 29.7929 49.7737 29.6859ZM65.9123 44.6687C66.2455 44.1019 66.5629 43.4965 66.5965 42.8399C68.0972 43.5148 69.7498 43.8492 71.3948 43.8109C71.653 43.8049 71.6438 44.203 71.5379 44.4386C71.2176 45.1515 70.897 45.8651 70.5263 46.5532C70.1458 47.2594 69.7139 47.9364 69.2825 48.6127L68.2484 50.2337C68.1068 50.4556 67.9607 50.6824 67.7503 50.8406C67.1858 51.265 66.38 51.0609 65.7358 50.7715C64.6673 50.2914 63.6837 49.6228 62.8442 48.8058C64.0101 47.5411 65.0406 46.1516 65.9123 44.6687ZM27.106 46.0694C27.6033 46.5707 27.9282 47.2132 28.245 47.8442L26.7534 48.0569C26.2564 48.1278 25.7468 48.2028 25.3075 48.4458C24.8801 48.6823 24.5505 49.0613 24.2604 49.4543C23.0473 51.0978 22.3749 53.1337 22.3707 55.1765C22.3692 55.9143 21.4971 56.4407 20.7834 56.2536C20.0697 56.0665 19.5848 55.3576 19.4615 54.6302C19.3381 53.9028 19.5118 53.159 19.7298 52.4541C20.4966 49.9734 21.8684 47.6306 23.898 46.0112C24.2857 45.7018 24.7142 45.4122 25.2041 45.3339C25.9013 45.2225 26.6088 45.5681 27.106 46.0694ZM89.7446 50.2218C89.9172 50.4435 90.045 50.7135 90.0372 50.9943C90.0271 51.3572 89.7972 51.6753 89.5495 51.9408C88.1096 53.4838 85.8967 54.0092 83.8007 54.2568C83.6625 54.2731 83.5177 54.2878 83.3881 54.2371C83.2816 54.1955 83.1962 54.1135 83.1202 54.028C82.6145 53.4593 82.4142 52.6644 82.4552 51.9045C82.4962 51.1446 82.7585 50.4128 83.085 49.7254C83.1538 49.5806 83.2334 49.4287 83.3736 49.351C83.4855 49.289 83.619 49.2842 83.7469 49.2809L86.2834 49.2143C86.908 49.1979 87.5393 49.1821 88.1507 49.3109C88.762 49.4397 89.3608 49.7288 89.7446 50.2218ZM61.4746 26.2542C60.441 24.3391 59.6678 22.2838 59.1827 20.1623L59.6003 19.0469C60.1169 18.0468 60.7681 17.1164 61.5309 16.2885C61.8415 15.9513 62.38 15.9141 62.8087 16.0765C63.2374 16.239 63.5822 16.562 63.915 16.8773L65.4126 18.2962C65.4572 18.3383 65.5037 18.3839 65.5186 18.4434C65.5465 18.5554 65.4538 18.658 65.3702 18.7376C64.6689 19.4044 64.0458 20.1561 63.5461 20.9849C62.791 22.2375 62.3298 23.6412 61.8749 25.0313L61.4746 26.2542ZM65.3021 15.4982C68.3513 13.8651 71.6866 12.3284 75.126 12.6959C76.9241 12.888 78.6442 13.6034 80.142 14.6167C75.8513 13.5138 71.0686 14.5312 67.5983 17.2849C67.0619 17.7105 66.2572 18.1728 65.7796 17.6821C65.657 17.5561 65.5769 17.3796 65.4987 17.2076C65.3736 16.9321 65.2538 16.6683 64.9734 16.6425C64.706 16.6179 64.5871 16.2551 64.7005 16.0117C64.8139 15.7683 65.0654 15.625 65.3021 15.4982ZM56.9256 45.3685C57.5274 45.9468 58.1902 46.4574 58.8514 46.9666L61.5229 49.0241C60.7002 49.7491 59.8953 50.4942 59.1091 51.2586C57.2375 50.1493 55.5669 48.702 54.2023 47.0075C54.9493 46.2294 55.6663 45.4226 56.3514 44.5895C56.459 44.8969 56.6907 45.1429 56.9256 45.3685ZM39.749 39.8033C38.3424 40.9022 36.8881 42.059 36.1144 43.6676C35.9632 43.9819 35.8383 44.3127 35.7136 44.6429C35.4486 45.345 35.1844 46.0447 34.6704 46.579C34.4426 46.5121 34.353 46.2436 34.2975 46.0127L33.7623 43.7864C33.6901 43.486 33.6173 43.1772 33.6584 42.871C33.6992 42.5662 33.8495 42.2886 33.9971 42.0188L35.5676 39.1488C35.6026 39.0848 35.6389 39.0192 35.695 38.9726C35.834 38.8572 36.0395 38.894 36.215 38.937L39.749 39.8033ZM62.6003 49.6624C63.5595 50.6486 64.7517 51.4068 66.0517 51.8573C66.2948 51.6285 66.7646 51.7547 66.8605 52.0744C66.4132 52.6548 65.9221 53.2015 65.3927 53.7082C65.1563 53.9345 64.7776 53.8868 64.4587 53.8135C62.9007 53.4559 61.4001 52.8499 60.0307 52.0255C59.9391 51.9703 59.836 51.8919 59.845 51.7853C59.8511 51.7136 59.9076 51.6579 59.9605 51.6092L61.8832 49.8385C62.0848 49.6528 62.4092 49.4659 62.6003 49.6624ZM87.1477 24.9258C87.1299 25.1428 87.0993 25.3849 86.9296 25.5214C86.9282 23.817 86.5056 22.1145 85.7097 20.6073C85.5654 20.3339 85.4089 20.0668 85.2348 19.8113C85.2124 19.7785 85.1897 19.7457 85.1669 19.7128L85.1667 19.7126C84.9912 19.4591 84.8115 19.1997 84.7688 18.897L86.829 21.0492C87.0185 21.2472 87.2134 21.4538 87.3031 21.7128C87.3895 21.9627 87.3689 22.2351 87.3472 22.4986L87.1477 24.9258ZM84.7805 22.1908L84.3139 21.6027C83.8006 20.9557 83.1708 20.2492 82.345 20.2483C81.8656 20.2478 81.4249 20.4932 81.0091 20.7317L80.3631 21.1021C80.1866 21.2033 80.0054 21.3086 79.881 21.4695C79.5222 21.9337 79.784 22.6119 80.1231 23.0906C80.3577 23.4218 80.6391 23.7399 81.0124 23.8994C81.4953 24.1056 82.0508 24.0144 82.557 23.8748C83.2501 23.6836 83.9199 23.4078 84.5468 23.0554C84.7472 22.9428 84.9687 22.7777 84.9586 22.548C84.9526 22.4127 84.8646 22.2968 84.7805 22.1908ZM80.7045 22.6446C80.6242 22.5168 80.5412 22.3803 80.5399 22.2293C80.5374 21.9342 80.8319 21.7361 81.091 21.5948L82.0118 21.0925C82.1511 21.0166 82.296 20.9389 82.4542 20.9282C82.6125 20.9176 82.7884 20.9938 82.8416 21.1432C82.9986 21.5841 83.3856 21.9359 83.8394 22.0502C83.9864 22.0873 84.0336 22.2907 83.9642 22.4254C83.8947 22.5601 83.7526 22.6388 83.6168 22.7061C83.1315 22.947 82.6241 23.1433 82.103 23.292C81.8942 23.3516 81.6731 23.4038 81.4618 23.3535C81.1162 23.2713 80.8935 22.9454 80.7045 22.6446ZM74.1539 27.1907C73.2406 27.2971 73.067 28.9437 73.4911 29.8219C73.5783 30.0026 73.7149 30.1887 73.9139 30.2139C74.2543 30.2571 74.4423 29.8372 74.5176 29.5025L74.5194 29.4947C74.6186 29.0536 75.0618 27.085 74.1539 27.1907ZM69.4439 29.3507C69.6265 28.9247 69.6875 28.4474 69.6177 27.9892C69.5852 27.7763 69.5212 27.5602 69.3789 27.3985C69.2367 27.2368 69.0016 27.1428 68.7989 27.2157C68.6156 27.2816 68.5003 27.4611 68.4135 27.6356C68.107 28.2516 67.9848 28.9579 68.0666 29.641C68.1047 29.9588 68.5052 30.1325 68.809 30.032C69.1129 29.9315 69.3178 29.6449 69.4439 29.3507ZM72.1363 28.3758C72.2781 28.2584 72.457 28.4717 72.5145 28.6466C72.7036 29.2214 72.8601 29.807 72.9831 30.3995C73.0608 30.7739 73.125 31.1629 73.0422 31.5362C72.9255 32.0626 72.5254 32.4907 72.0612 32.765C71.5969 33.0392 71.0686 33.1811 70.5476 33.3201C70.41 33.3568 70.237 33.3829 70.1481 33.2716C70.0726 33.1772 70.1099 33.0292 70.1958 32.9441C70.28 32.8607 70.3973 32.8222 70.5102 32.7851L70.5169 32.7829C71.329 32.5162 72.1968 32.0347 72.3859 31.201C72.4898 30.7426 72.3633 30.2822 72.2363 29.8198C72.1206 29.3986 72.0045 28.9758 72.0616 28.5516C72.0703 28.4869 72.0861 28.4174 72.1363 28.3758ZM66.4648 26.5008C66.2509 26.2046 66.4223 25.7545 66.7324 25.5613C67.0425 25.3681 67.4344 25.3707 67.7968 25.4175C68.2294 25.4734 68.6549 25.5834 69.0603 25.7442C69.1466 25.7784 69.2395 25.822 69.2775 25.9068C69.3479 26.0637 69.1659 26.2354 68.9939 26.2353C68.8555 26.2352 68.73 26.1686 68.606 26.1027C68.5759 26.0867 68.546 26.0708 68.5159 26.0559C67.8391 25.7201 66.9417 25.9148 66.4648 26.5008ZM74.2653 26.3988C74.5869 26.3453 74.928 26.4195 75.1982 26.6019C75.3111 26.6782 75.4729 26.5499 75.4736 26.4137C75.4742 26.2774 75.3726 26.1628 75.2655 26.0785C75.0348 25.897 74.7475 25.7883 74.4544 25.7718C74.2653 25.7611 74.0559 25.7977 73.9341 25.9428C73.8123 26.0878 73.8491 26.3601 74.0316 26.4106C74.0968 26.4287 74.1652 26.4165 74.2324 26.4045L74.2653 26.3988ZM70.2735 34.7553C70.364 34.7042 70.4835 34.7935 70.4969 34.8965C70.5104 34.9996 70.4516 35.0982 70.3844 35.1775C70.0471 35.5755 69.4661 35.6981 68.9528 35.6048C68.4396 35.5115 67.9796 35.2356 67.5467 34.9445C67.3431 34.8076 67.1426 34.6663 66.9453 34.5205C66.7407 34.3695 66.5228 34.1846 66.4983 33.9315C66.4738 33.6785 66.798 33.4234 66.9831 33.5977C67.4381 34.0261 67.9034 34.4617 68.4694 34.7268C69.0353 34.9918 69.7292 35.0625 70.2735 34.7553ZM60.5314 36.7845C58.6357 32.664 57.8449 28.0414 58.2629 23.5251C58.2701 23.448 58.2798 23.3653 58.3308 23.3069C58.4027 23.2246 58.5503 23.228 58.6183 23.3136C58.5941 25.798 58.5709 28.2974 58.9764 30.7485C59.382 33.1997 60.2432 35.6248 61.8154 37.5485C61.8624 37.606 61.9101 37.6632 61.9579 37.7204C62.2283 38.0448 62.5011 38.3718 62.6544 38.7629C61.632 38.7432 60.9587 37.7135 60.5314 36.7845ZM62.3905 18.1778C62.3555 18.1399 62.3147 18.1065 62.2673 18.086C62.1306 18.027 61.9703 18.0875 61.8506 18.1761C61.3735 18.5293 61.3716 19.3552 61.8472 19.7105C62.0791 19.5129 62.3173 19.3075 62.4532 19.0348C62.5891 18.762 62.5974 18.4016 62.3905 18.1778ZM66.5047 22.5291C67.0189 22.9465 67.6049 23.2753 68.2292 23.4967C70.2437 24.211 72.5075 23.7625 74.4515 22.874C74.7486 22.7382 75.1276 22.8098 75.3546 23.0445C74.1064 23.934 72.5772 24.4229 71.0445 24.4226C70.7065 24.4225 70.3689 24.3993 70.0322 24.3699C69.3432 24.3097 68.6491 24.2214 68.0009 23.9801C67.3528 23.7388 66.7476 23.3306 66.3807 22.7444L66.5047 22.5291ZM88.4415 49.6792C88.4215 49.7478 88.4766 49.8135 88.5273 49.8638L89.2928 50.6234C89.3762 50.4049 89.2825 50.1506 89.122 49.9806C88.9614 49.8105 88.7446 49.7071 88.5331 49.6074C88.4917 49.6092 88.4531 49.6395 88.4415 49.6792Z" fill="#00160A"/>
<path fill-rule="evenodd" clip-rule="evenodd" d="M138.711 20.1329C139.648 20.4579 140.531 19.6122 141.34 19.0361C142.59 18.1446 144.221 17.8075 145.722 18.1304C145.971 18.1839 146.232 18.2643 146.396 18.4592C146.546 18.6374 146.589 18.8805 146.613 19.1122C146.761 20.5304 146.406 21.9959 145.626 23.1896C145.247 23.7704 144.772 24.2874 144.432 24.8925C144.093 25.4975 143.899 26.2367 144.141 26.8869C145.578 30.7526 144.98 35.3121 142.595 38.6764C140.209 42.0406 136.104 44.1136 131.981 44.0365C129.872 43.9971 127.806 43.4342 125.819 42.7264C124.952 42.4176 123.999 42.0788 123.139 42.4049C121.569 43 119.915 43.3757 118.242 43.5179C117.827 43.5531 117.393 43.5713 117.01 43.4073C116.437 43.162 116.091 42.5402 116.025 41.9199C115.959 41.2997 116.13 40.6788 116.347 40.0939C117 38.3294 119.029 35.5731 120.256 34.9382C120.157 32.7955 120.168 30.6278 120.631 28.5335C121.095 26.4392 122.04 24.407 123.591 22.9251C124.231 22.3131 124.964 21.8036 125.732 21.3615C129.615 19.1257 134.477 18.6655 138.711 20.1329ZM132.796 19.959C129.827 20.0285 126.936 21.2214 124.615 23.0746C123.933 23.6188 123.293 24.2233 122.781 24.9296C122.378 25.4864 122.059 26.1008 121.792 26.7346C120.211 30.4952 120.572 35.0135 122.73 38.4753C122.777 38.5508 122.831 38.6308 122.915 38.6601C123.019 38.6963 123.13 38.6436 123.227 38.592C130.005 34.9798 136.039 29.977 140.843 23.9847C140.958 23.842 141.078 23.6763 141.053 23.495C141.035 23.3591 140.938 23.2487 140.843 23.1494C138.793 20.9998 135.766 19.8895 132.796 19.959ZM136.948 42.4085C140.168 40.897 142.613 37.9103 143.659 34.5109C143.896 33.7411 144.066 32.9454 144.082 32.1402C144.096 31.4631 144.002 30.7889 143.908 30.1182C143.771 29.1459 143.635 28.1736 143.498 27.2012C143.462 26.9434 143.213 26.6031 143.032 26.7898C137.995 31.9738 132.494 36.7074 126.617 40.9159C126.422 41.056 126.207 41.2292 126.196 41.4695C126.184 41.7476 126.449 41.9493 126.69 42.0884C129.771 43.8651 133.729 43.9199 136.948 42.4085ZM117.09 42.0126C117.324 42.3883 117.832 42.4652 118.274 42.4774C120.596 42.5417 122.893 41.8614 124.97 40.8224C127.047 39.7834 128.927 38.3936 130.754 36.9597C133.191 35.0472 135.555 33.0428 137.859 30.9721C140.712 28.4076 143.516 25.6875 145.389 22.3396C145.751 21.692 146.086 20.9818 146.029 20.2419C145.972 19.502 145.382 18.755 144.641 18.7839C143.067 18.8453 141.52 19.4503 140.322 20.4727C140.084 20.676 140.252 21.1088 140.546 21.2188C140.839 21.3289 141.165 21.2195 141.452 21.0931C141.738 20.9666 142.037 20.8187 142.348 20.8533C142.824 20.9062 143.161 21.393 143.19 21.8706C143.218 22.3482 143.007 22.8072 142.758 23.2158C142.297 23.9721 141.696 24.6312 141.088 25.2751C135.686 30.9988 129.453 35.938 122.647 39.8905C122.034 40.2464 121.414 40.5956 120.754 40.8549C120.408 40.991 120.012 41.1002 119.674 40.9446C119.12 40.6896 119.076 39.9121 119.242 39.3256C119.492 38.4449 120.03 37.6488 120.755 37.09C120.618 36.7031 120.481 36.3163 120.344 35.9294C118.554 37.0725 117.298 39.0168 116.992 41.1182C116.948 41.4215 116.928 41.7526 117.09 42.0126ZM122.178 39.3577C122.191 39.3178 122.168 39.2762 122.146 39.2408C121.914 38.8734 121.683 38.5061 121.452 38.1388C121.347 37.9726 121.145 37.7843 120.988 37.9025C120.423 38.3281 120.019 38.962 119.871 39.6538C119.841 39.7903 119.824 39.9427 119.899 40.0609C120.037 40.2808 120.367 40.2318 120.612 40.1442C121.133 39.9574 121.635 39.7173 122.108 39.4287C122.137 39.4109 122.168 39.3902 122.178 39.3577ZM142.29 21.8717C142.267 21.7763 142.153 21.7348 142.055 21.7306C141.757 21.7176 141.446 21.9625 141.465 22.26C141.484 22.5576 141.926 22.745 142.111 22.511C142.167 22.4403 142.19 22.3503 142.212 22.2631C142.235 22.1766 142.257 22.0902 142.279 22.0038C142.29 21.9605 142.301 21.9151 142.29 21.8717Z" fill="#00160A"/>
</svg>
