<svg viewBox="0 0 832 500" fill="none" xmlns="http://www.w3.org/2000/svg">
<path fill-rule="evenodd" clip-rule="evenodd" d="M448.273 380.649C459.489 378.238 458.938 368.672 495.063 368.672C501.508 368.672 514.334 373.408 522.151 375.147C537.097 378.472 564.784 391.043 564.784 391.043C564.784 391.043 577.123 398.503 596.854 398.88C616.585 399.257 627.317 393.887 648.157 393.887C663.354 393.887 676.545 398.88 689.564 398.88C702.583 398.88 720.574 397.221 721.188 387.201C729.46 252.218 685.019 196.27 654.518 148.743C606.154 73.3796 619.495 -40.9072 558.372 14.7744C542.867 28.8989 541.011 40.5488 513.58 55.6485C491.745 67.6683 474.736 70.0551 463.158 77.4049C431.107 97.7511 414.273 126.099 391.974 139.661C353.034 163.346 340.262 153.747 309.478 169.953C305.415 172.092 300.909 175.11 295.895 177.136C285.922 181.165 274.559 184.426 265.012 191.155C257.295 196.595 245.43 212.265 245.43 212.265L172.294 237.739C172.294 237.739 156.049 245.286 162.844 272.215C169.64 299.144 191.021 358.729 191.021 358.729C191.021 358.729 211.384 358.438 228.457 368.672C245.53 378.905 251.125 401.28 251.125 401.28C251.125 401.28 292.079 388.914 309.478 382.855C314.256 381.191 325.064 376.99 341.584 376.203C359.694 375.34 373.348 384.312 399.676 385.62C414.47 386.354 437.056 383.06 448.273 380.649Z" fill="#90E0EF"/>
<path fill-rule="evenodd" clip-rule="evenodd" d="M735.137 297.41C734.516 295.869 731.894 296.584 731.396 298.169C730.918 299.687 731.636 301.278 732.296 302.741L732.382 302.931C739.302 318.319 733.793 338.264 719.957 347.918C718.289 346.899 717.092 345.296 715.9 343.701C714.57 341.921 713.247 340.15 711.283 339.203C709.566 338.375 707.595 338.308 705.69 338.256L688.702 337.791C686.636 337.735 684.148 337.904 683.145 339.711C680.959 343.65 675.112 345.222 671.572 342.436C668.031 339.65 668.637 332.989 672.831 331.344C673.142 331.222 673.466 331.125 673.79 331.028L673.791 331.028C674.498 330.816 675.203 330.604 675.763 330.138C676.497 329.527 676.851 328.585 677.175 327.687L683.767 309.43C684.181 308.284 684.601 307.104 684.571 305.885C684.511 303.401 682.635 301.359 680.71 299.788C680.405 299.539 680.093 299.292 679.781 299.045L679.781 299.045C678.123 297.734 676.441 296.404 675.528 294.524C674.442 292.289 675.079 288.981 677.458 288.263C689.937 284.5 703.965 282.112 715.583 288.02C715.908 288.185 716.232 288.357 716.557 288.529L716.558 288.53L716.558 288.53C718.226 289.414 719.919 290.311 721.785 290.364C724.015 290.426 726.481 288.601 726.075 286.408C725.815 285.006 724.555 283.972 723.347 282.982C721.895 281.792 720.52 280.664 721.046 279.034C721.254 278.389 721.752 277.887 722.234 277.411L737.02 262.799C737.531 260.035 733.512 258.525 730.924 259.62C729.642 260.162 728.538 261.027 727.434 261.891C726.309 262.772 725.185 263.653 723.872 264.192C718.615 266.35 712.986 262.358 708.824 258.489C693.927 244.639 680.715 228.979 669.573 211.962C669.061 211.181 668.534 210.323 668.601 209.392C668.687 208.196 669.707 207.311 670.648 206.568L695.233 187.154C697.213 185.591 700.311 184.098 701.941 186.023L747.213 239.49C747.933 240.34 748.677 241.239 748.901 242.33C749.36 244.573 747.49 246.6 745.595 247.886C745.301 248.086 744.998 248.283 744.693 248.481C743.043 249.555 741.346 250.659 740.614 252.448C739.746 254.566 741.638 257.689 743.756 256.821C754.6 249.031 765.935 241.029 779.086 238.717C781.574 238.28 784.278 238.088 786.493 239.304C791.421 242.01 790.727 249.267 788.854 254.568C785.436 264.239 780.37 273.326 773.939 281.317C772.658 282.909 771.235 284.822 771.776 286.793C772.54 289.578 776.408 289.92 779.176 289.095C779.614 288.964 780.059 288.819 780.508 288.673L780.508 288.673C782.893 287.896 785.385 287.085 787.554 288.184C788.693 288.761 789.526 289.789 790.323 290.787L830.733 341.386C821.426 348.705 811.953 355.811 802.323 362.698C801.372 363.378 800.31 364.088 799.144 363.992C797.764 363.877 796.754 362.689 795.907 361.593L757.152 311.457C755.5 309.319 757.056 306.122 759.184 304.457C759.954 303.854 760.798 303.339 761.641 302.825C763.129 301.918 764.61 301.014 765.657 299.643C767.298 297.497 766.863 293.493 764.191 293.087C762.672 292.856 761.276 293.913 760.178 294.988C759.32 295.829 758.504 296.729 757.687 297.628L757.687 297.629C755.586 299.944 753.485 302.26 750.68 303.56C745.025 306.181 737.467 303.19 735.137 297.41ZM680.839 328.558C680.764 328.751 680.688 328.95 680.692 329.158C680.702 329.75 681.38 330.147 681.969 330.086C682.557 330.025 683.06 329.651 683.529 329.29L696.047 319.672C696.699 319.171 697.414 318.549 697.41 317.727C697.407 317.085 696.958 316.544 696.533 316.062L691.033 309.83C690.746 309.505 690.437 309.166 690.023 309.038C688.891 308.689 688.018 310.03 687.59 311.134L680.839 328.558ZM701.03 322.564C701.391 322.705 701.657 323.011 701.909 323.305L709.38 332.06C709.567 332.766 708.558 333.119 707.828 333.133L687.881 333.52C686.903 333.539 685.874 333.546 685.018 333.073C688.779 328.428 693.806 324.817 699.409 322.735C699.931 322.541 700.512 322.361 701.03 322.564Z" fill="white"/>
<path fill-rule="evenodd" clip-rule="evenodd" d="M302.299 295.788C302.694 290.014 306.937 284.697 312.479 283.03C315.809 282.028 318.128 278.83 318.955 275.453C319.781 272.075 319.348 268.522 318.709 265.104C316.667 254.19 311.949 242.926 302.451 237.175C292.154 230.939 278.88 232.727 267.531 236.743C262.585 238.494 257.444 240.911 254.846 245.47C253.248 248.274 252.809 251.569 252.4 254.77C251.565 261.317 250.728 267.927 251.331 274.499C251.935 281.071 254.107 287.695 258.591 292.537C261.714 295.909 266.5 298.369 270.869 296.944C274.294 295.827 277.436 299.01 280.678 300.579C285.105 302.72 290.33 301.833 295.158 300.901C298.264 300.301 302.084 298.944 302.299 295.788Z" fill="white"/>
<path fill-rule="evenodd" clip-rule="evenodd" d="M418.044 383.122C429.26 381.971 440.477 380.819 451.693 379.667C449.69 382.73 445.66 383.593 442.042 384.144C420.764 387.384 398.67 388.818 378.009 382.79C356.357 376.474 332.843 376.698 311.315 383.424C311.486 380.734 314.5 379.291 317.083 378.518C334.486 373.312 353.32 372.981 370.896 377.571C378.672 379.602 386.237 382.58 394.2 383.669C402.097 384.75 410.115 383.937 418.044 383.122Z" fill="#00160A"/>
<path fill-rule="evenodd" clip-rule="evenodd" d="M330.034 159.091C341.029 156.307 352.688 156.219 363.316 152.257C363.881 152.691 364.445 153.125 365.01 153.559C360.035 158.384 352.324 158.436 345.418 159.017C332.289 160.121 319.424 164.246 308.1 170.98C302.667 174.211 297.434 178.098 291.282 179.549C276.62 183.007 263.125 191.245 253.348 202.705C252.688 201.556 251.581 200.671 250.315 200.28C258.088 193.415 266.652 187.445 275.782 182.527C281.304 179.552 287.025 176.964 292.74 174.378C297.545 172.205 302.351 170.031 307.156 167.857C314.607 164.487 322.106 161.099 330.034 159.091V159.091Z" fill="#00160A"/>
<path fill-rule="evenodd" clip-rule="evenodd" d="M544.659 30.4597C542.741 33.0791 540.946 35.8018 538.761 38.2036C535.871 41.3812 532.364 43.9262 528.86 46.4105C518.268 53.9199 507.333 61.1543 495.245 65.894C489.613 68.1021 483.774 69.751 478.157 71.9947C460.555 79.0252 445.699 91.6858 433.176 105.913C432.202 107.02 431.162 108.189 429.749 108.612C428.337 109.035 426.481 108.32 426.27 106.861C440.996 92.8772 456.133 78.6171 474.757 70.5215C483.054 66.9149 491.877 64.615 500.136 60.9226C508.352 57.2497 515.898 52.2499 523.288 47.1143C528.205 43.6979 533.107 40.1795 537.201 35.8109C543.645 28.9338 548.062 19.9906 555.91 14.7726C556.863 14.1395 558.534 13.8128 558.818 14.9206C553.563 19.5762 548.807 24.7953 544.659 30.4597Z" fill="#00160A"/>
<path fill-rule="evenodd" clip-rule="evenodd" d="M174.668 86.4746C176.694 90.4363 180.345 93.5361 184.582 94.8934C184.564 95.3876 184.545 95.8818 184.527 96.376C180.88 98.5818 178.917 103.253 179.894 107.402C180.195 108.679 178.369 109.58 177.184 109.018C175.998 108.456 175.401 107.146 174.843 105.959C174.142 104.469 173.334 102.988 172.118 101.878C170.902 100.767 169.204 100.072 167.593 100.412C166.413 100.66 165.332 99.4035 165.352 98.1972C165.372 96.991 166.154 95.933 167.016 95.0889C167.878 94.2448 168.868 93.5022 169.509 92.48C170.259 91.2843 170.453 89.8282 170.532 88.4191C170.581 87.5407 170.601 86.6272 170.997 85.8417C171.394 85.0563 172.302 84.446 173.142 84.7081C173.906 84.9467 174.303 85.7615 174.668 86.4746L174.668 86.4746Z" fill="#00160A"/>
<path fill-rule="evenodd" clip-rule="evenodd" d="M617.023 399.907C601.287 402.037 585.053 400.391 570.064 395.146C567.486 394.244 564.443 392.448 564.815 389.742C579.482 396.152 595.829 398.67 611.744 396.97C622.346 395.839 632.737 392.879 643.392 392.475C655.456 392.017 667.367 394.845 679.327 396.484C691.288 398.123 703.954 398.478 714.912 393.411C715.936 392.938 717.038 392.405 718.142 392.637C719.246 392.868 720.105 394.316 719.352 395.156C719.123 395.411 718.798 395.555 718.482 395.69C709.684 399.438 700.086 401.296 690.524 401.1C675.174 400.785 660.192 395.273 644.847 395.783C635.469 396.094 626.322 398.649 617.023 399.907Z" fill="#00160A"/>
<path fill-rule="evenodd" clip-rule="evenodd" d="M668.053 127.299C668.222 128.752 668.58 130.786 667.174 131.188C665.862 131.563 665.028 129.878 664.478 128.629C662.999 125.27 659.485 122.91 655.816 122.813C654.364 122.774 654.119 120.479 655.139 119.445C656.159 118.411 657.713 118.164 659.005 117.499C661.018 116.463 662.347 114.401 663.001 112.233C663.656 110.066 663.719 107.771 663.777 105.507C663.792 104.934 664.445 104.542 665.014 104.616C665.582 104.691 666.05 105.095 666.423 105.53C668.982 108.509 668.651 113.367 671.581 115.982C672.942 117.197 674.871 117.77 675.925 119.26C675.102 120.244 673.646 120.295 672.418 120.663C669.663 121.488 667.72 124.443 668.053 127.299H668.053Z" fill="#00160A"/>
<path fill-rule="evenodd" clip-rule="evenodd" d="M248.745 117.361C250.786 118.869 251.853 121.337 253.51 123.26C255.264 125.298 257.724 126.717 260.366 127.217C256.625 129.277 254.172 133.485 254.223 137.755C254.235 138.764 254.084 140.146 253.079 140.233C252.82 140.256 252.565 140.17 252.325 140.069C248.39 138.412 246.777 132.717 242.537 132.222C241.041 132.048 240.776 129.816 241.643 128.585C242.51 127.354 243.97 126.664 244.922 125.497C246.841 123.142 246.388 119.277 248.745 117.361V117.361Z" fill="#00160A"/>
<path fill-rule="evenodd" clip-rule="evenodd" d="M345.355 65.1015C344.42 65.6596 343.178 65.07 342.496 64.2207C341.815 63.3715 341.464 62.2992 340.811 61.4272C339.131 59.181 335.764 58.6236 334.281 56.2422C333.81 55.4856 333.618 54.3976 334.251 53.7697C334.503 53.5195 334.844 53.3866 335.161 53.227C337.423 52.089 338.559 49.5082 339.119 47.0389C339.679 44.5696 339.857 41.9676 340.987 39.7019C341.268 39.138 341.645 38.568 342.232 38.3374C342.818 38.1068 343.634 38.4021 343.724 39.0259C344.052 41.2967 344.38 43.5676 344.708 45.8385C344.898 47.1526 345.104 48.5132 345.828 49.6262C346.552 50.7392 347.949 51.5325 349.215 51.133C350.095 50.8552 350.8 52.098 350.483 52.9653C350.167 53.8327 349.324 54.3687 348.633 54.981C346.911 56.5071 345.956 58.8597 346.128 61.1545C346.234 62.5729 346.576 64.3725 345.355 65.1015V65.1015Z" fill="#00160A"/>
<path fill-rule="evenodd" clip-rule="evenodd" d="M193.784 233.487C194.811 232.892 195.825 234.692 195.141 235.663C194.457 236.634 193.122 236.814 191.95 237.004C184.506 238.213 178.088 243.2 173.624 249.277C171.285 252.461 169.329 256.285 169.851 260.202C170.134 262.328 170.957 264.958 169.26 266.27C167.283 264.163 166.139 261.294 166.126 258.405C166.103 253.308 169.377 248.833 172.75 245.011C176.624 240.62 181.308 236.289 187.131 235.662C189.467 235.411 191.75 234.665 193.784 233.487Z" fill="#00160A"/>
<path fill-rule="evenodd" clip-rule="evenodd" d="M565.256 431.829C567.899 429.655 569.683 426.463 570.152 423.072C570.328 421.794 572.388 421.738 573.167 422.766C573.947 423.794 573.842 425.212 573.802 426.502C573.749 428.182 573.892 429.938 574.748 431.385C575.604 432.832 577.339 433.867 578.969 433.455C579.609 433.292 580.209 434.006 580.162 434.665C580.115 435.324 579.635 435.87 579.124 436.289C577.131 437.922 574.146 438.648 573.206 441.047C572.874 441.893 572.865 442.826 572.694 443.719C572.523 444.612 572.12 445.548 571.305 445.952C570.491 446.355 569.258 445.859 569.255 444.95C569.246 441.783 567.666 438.659 565.12 436.774C564.383 436.228 563.5 435.678 563.336 434.775C563.116 433.56 564.302 432.614 565.256 431.829L565.256 431.829Z" fill="#00160A"/>
<path fill-rule="evenodd" clip-rule="evenodd" d="M197.984 261.287C201.218 263.713 205.173 265.165 209.209 265.406C210.129 265.462 210.065 266.848 209.701 267.695C208.664 270.116 207.626 272.537 206.589 274.958C207.169 275.802 207.778 276.781 207.552 277.78C207.325 278.779 205.729 279.318 205.289 278.393C203.586 274.812 199.291 272.673 195.408 273.473C195.603 272.104 196.357 270.89 196.921 269.627C198.08 267.031 198.454 264.091 197.984 261.287Z" fill="#00160A"/>
<path fill-rule="evenodd" clip-rule="evenodd" d="M398.495 359.211C397.131 355.866 393.661 353.493 390.05 353.436C389.062 349.92 393.311 347.017 393.69 343.385C393.768 342.632 393.675 341.857 393.869 341.124C394.063 340.391 394.678 339.679 395.434 339.73C396.486 342.296 398.382 344.508 400.756 345.942C401.373 346.315 402.044 346.656 402.458 347.246C402.872 347.836 402.904 348.773 402.311 349.183C399.262 351.293 398.739 355.511 398.495 359.211Z" fill="#00160A"/>
<path fill-rule="evenodd" clip-rule="evenodd" d="M266.205 334.201C266.704 333.959 267.283 333.885 267.826 333.993C268.252 337.681 271.032 340.988 274.591 342.041C272.997 345.251 272.107 348.81 272.002 352.393C271.646 352.681 271.132 352.368 270.789 352.064C268.057 349.648 265.325 347.233 262.594 344.817C265.234 342.009 266.585 338.036 266.205 334.201Z" fill="#00160A"/>
<path fill-rule="evenodd" clip-rule="evenodd" d="M630.932 302.034C630.482 301.775 629.99 301.525 629.472 301.564C629.007 301.599 628.579 301.866 628.112 301.876C627.645 301.886 627.126 301.39 627.386 301.003C631.864 298.624 633.682 293.259 635.108 288.393C635.342 287.959 636.057 288.08 636.337 288.485C636.617 288.891 636.6 289.422 636.602 289.915C636.614 292.051 637.241 294.225 638.599 295.874C639.957 297.523 642.093 298.58 644.221 298.392C640.994 300.617 637.472 303.304 636.988 307.195C635.308 305.123 633.244 303.364 630.932 302.034H630.932Z" fill="#00160A"/>
<path fill-rule="evenodd" clip-rule="evenodd" d="M278.298 382.019C284.362 379.576 290.662 376.969 294.964 372.046C295.485 371.451 296.025 370.79 296.79 370.592C297.556 370.393 298.551 370.985 298.396 371.761C297.64 375.539 293.841 377.784 290.418 379.553C288.337 380.629 286.255 381.704 284.173 382.78C283.143 383.312 282.064 383.857 280.905 383.866C279.746 383.874 278.493 383.162 278.298 382.019L278.298 382.019Z" fill="#00160A"/>
<path fill-rule="evenodd" clip-rule="evenodd" d="M516.245 375.356C517.046 374.151 518.781 374.131 520.219 374.28C526.977 374.982 533.646 376.533 540.019 378.885C545.13 380.772 550.068 383.182 554.533 386.304C549.934 386.632 545.614 384.361 541.354 382.597C535.517 380.181 529.362 378.639 523.234 377.105C520.904 376.522 518.575 375.939 516.245 375.356Z" fill="#00160A"/>
<path fill-rule="evenodd" clip-rule="evenodd" d="M183.388 318.153C181.861 314.434 180.449 310.669 179.154 306.863C178.836 305.927 178.524 304.989 178.213 304.052C175.618 296.23 173.023 288.407 170.723 280.494C170.455 279.571 170.733 278.063 171.647 278.359C172.023 278.481 172.209 278.892 172.351 279.26C175.358 287.018 178.365 294.775 181.372 302.533C183.395 307.754 185.453 313.184 185.085 318.771C185.058 319.191 184.47 319.368 184.101 319.164C183.733 318.959 183.547 318.542 183.388 318.153Z" fill="#00160A"/>
<path fill-rule="evenodd" clip-rule="evenodd" d="M298.587 352.954C298.902 354.291 298.582 356.365 297.23 356.122C293.153 341.404 289.28 326.63 285.615 311.805C285.491 311.306 285.37 310.771 285.549 310.29C285.728 309.808 286.341 309.457 286.772 309.738C286.987 309.878 287.098 310.131 287.195 310.369C290.389 318.16 292.332 326.396 294.263 334.592C295.704 340.712 297.146 346.833 298.587 352.954Z" fill="#00160A"/>
<path fill-rule="evenodd" clip-rule="evenodd" d="M168.225 202.729C167.634 203.18 167.042 203.632 166.451 204.083C153.44 194.517 137.702 188.703 121.597 187.51C121.372 186.78 121.307 186.002 121.407 185.245C135.966 185.356 150.465 189.766 162.621 197.778C164.715 199.158 166.779 200.68 168.225 202.729Z" fill="#00160A"/>
<path fill-rule="evenodd" clip-rule="evenodd" d="M211.056 480.502C229.509 470.671 245.554 456.358 257.42 439.143C259.794 435.699 262.002 432.144 264.208 428.59C265.112 427.135 266.015 425.68 266.919 424.225C268.426 428.831 265.357 433.565 262.449 437.442C249.405 454.833 235.241 473.084 214.858 480.643C213.597 481.111 211.995 481.466 211.056 480.502V480.502Z" fill="#00160A"/>
<path fill-rule="evenodd" clip-rule="evenodd" d="M298.713 252.708C300.027 252.188 301.506 252.777 302.736 253.471C305.399 254.975 307.836 257.131 308.935 259.984C310.033 262.838 309.489 266.452 307.096 268.356C305.85 269.346 303.962 269.111 302.633 268.235C301.305 267.36 300.408 265.98 299.55 264.64C297.786 261.886 295.945 258.748 296.626 255.548C296.881 254.351 297.575 253.159 298.713 252.708H298.713Z" fill="#FFB61D"/>
<path fill-rule="evenodd" clip-rule="evenodd" d="M56.726 278.9C54.3586 278.364 52.3016 276.61 51.3987 274.357C50.4959 272.104 50.7723 269.415 52.1147 267.392C53.7714 264.896 56.747 263.615 59.6589 262.912C62.6215 262.196 65.6944 261.94 68.7347 262.154C69.8937 262.235 71.0982 262.403 72.0564 263.06C72.7966 263.568 73.3285 264.33 73.7248 265.135C75.0619 267.852 74.9242 271.241 73.3714 273.84C71.8185 276.439 68.899 278.167 65.8733 278.277C62.8027 278.389 59.7229 279.578 56.726 278.9M60.6227 272.229C62.8931 272.11 65.156 271.849 67.3939 271.448C68.3031 271.285 69.2778 271.059 69.8819 270.361C70.486 269.662 70.4116 268.342 69.5419 268.031C66.2143 266.84 62.3396 267.3 59.3836 269.238C58.7001 269.686 57.9913 270.408 58.2025 271.197C58.4488 272.118 59.6711 272.279 60.6227 272.229L60.6227 272.229Z" fill="#00160A"/>
<path fill-rule="evenodd" clip-rule="evenodd" d="M218.793 208.39C219.178 208.415 219.336 208.957 219.144 209.291C218.979 209.577 218.672 209.738 218.362 209.866L196.25 218.508V218.508C195.367 218.853 193.842 218.67 194.114 217.761C194.224 217.396 194.619 217.211 194.973 217.069C202.821 213.932 210.766 211.038 218.793 208.39Z" fill="#00160A"/>
<path fill-rule="evenodd" clip-rule="evenodd" d="M290.326 238.138C287.659 238.271 285.039 239.096 282.737 240.45C280.896 241.532 278.569 240.986 276.513 240.41C274.526 239.853 272.54 239.296 270.553 238.739C270.428 238.136 271.148 237.737 271.735 237.554C277.549 235.745 283.643 234.479 289.707 235.025C295.772 235.572 301.843 238.111 305.688 242.833C300.855 240.383 295.738 237.869 290.326 238.138Z" fill="#00160A"/>
<path fill-rule="evenodd" clip-rule="evenodd" d="M266.709 253.232C266.948 257.923 264.992 262.68 261.523 265.847C260.617 266.674 259.466 267.436 258.254 267.244C257.028 267.049 256.13 265.88 255.907 264.659C255.683 263.438 256.007 262.184 256.433 261.018C257.757 257.399 260.124 254.169 263.175 251.816C263.948 251.22 265.011 250.665 265.845 251.173C266.508 251.577 266.67 252.457 266.709 253.232V253.232Z" fill="#FFB61D"/>
<path fill-rule="evenodd" clip-rule="evenodd" d="M417.595 450.756C412.612 449.287 407.163 445.699 407.466 440.513C407.675 436.919 410.628 434.148 413.517 431.998C417.484 429.046 421.742 426.484 426.208 424.361C429.242 422.919 432.79 421.178 433.377 417.87C436.806 398.534 451.512 381.665 470.151 375.481C488.79 369.298 510.579 373.981 525.138 387.16C528.024 389.773 531.583 392.936 535.265 391.67C542.667 389.126 550.94 387.399 558.191 390.346C560.868 391.434 563.571 393.656 563.437 396.543C563.373 397.911 562.67 399.159 561.934 400.314C557.362 407.488 550.754 413.35 543.086 417.034C539.291 418.858 536.802 422.655 535.291 426.584C533.781 430.514 533.064 434.705 531.706 438.69C526.309 454.521 510.589 465.697 493.982 467.681C477.374 469.664 460.4 463.246 447.683 452.382C446.232 451.142 444.427 449.752 442.615 450.351C434.572 453.008 425.719 453.152 417.595 450.756M442.915 436.125C443.745 436.526 444.702 436.538 445.624 436.528C465.569 436.295 484.677 429.026 503.291 421.857C511.364 418.747 519.437 415.637 527.511 412.528C529.159 411.893 530.984 411.087 531.607 409.434C532.017 408.349 531.798 407.135 531.516 406.01C529.048 396.173 521.972 387.797 513.148 382.797C504.324 377.797 493.894 376.013 483.777 376.725C469.959 377.698 456.183 383.535 447.259 394.13C438.335 404.724 434.996 420.285 440.475 433.008C441.009 434.247 441.7 435.538 442.915 436.125M529.013 424.887C505.748 435.918 480.909 443.623 455.486 447.696C453.714 447.98 452.951 450.339 453.647 451.994C454.342 453.648 455.956 454.703 457.507 455.605C466.881 461.053 477.487 464.671 488.328 464.828C499.169 464.984 510.237 461.475 518.242 454.163C526.247 446.85 530.811 435.579 529.013 424.887M411.63 442.54C412.246 444.416 414.165 445.522 416.009 446.23C423.236 449.005 431.285 448.292 438.957 447.251C469.917 443.048 500.233 434.132 528.539 420.905C539.879 415.606 551.392 409.175 558.106 398.61C558.688 397.694 559.25 396.669 559.14 395.589C558.908 393.316 556.079 392.42 553.797 392.313C548.142 392.048 542.54 393.308 537.019 394.56C535.094 394.996 532.693 396.043 532.871 398.009C533.068 400.167 536.093 400.571 538.186 400.014C540.28 399.457 542.871 398.691 544.326 400.297C546.315 402.493 543.575 405.749 541.06 407.316C522.056 419.159 500.558 426.277 479.292 433.287C474.275 434.941 469.244 436.598 464.069 437.661C459.627 438.573 455.107 439.04 450.596 439.505C446.376 439.941 442.156 440.377 437.936 440.813C435.798 441.034 433.573 441.245 431.552 440.511C429.531 439.778 427.789 437.801 428.069 435.669C428.378 433.31 430.788 431.944 432.589 430.388C434.389 428.832 435.615 425.685 433.675 424.307C427.076 426.992 420.881 430.668 415.363 435.174C413.089 437.03 410.714 439.751 411.63 442.54M535.864 407.261C537.618 406.153 539.372 405.044 541.126 403.936C541.663 403.597 542.278 403.045 542.053 402.451C541.856 401.932 541.171 401.843 540.616 401.838C539.012 401.824 537.233 401.877 536.075 402.986C534.939 404.074 534.84 406.066 535.864 407.261M431.854 435.314C431.725 435.454 431.592 435.602 431.535 435.784C431.292 436.568 432.506 436.984 433.284 436.724C434.063 436.464 434.942 435.962 435.626 436.414C436.613 437.066 437.997 435.716 437.635 434.59C437.274 433.464 435.843 432.98 434.699 433.28C433.556 433.58 432.656 434.445 431.854 435.314H431.854Z" fill="#00160A"/>
<path fill-rule="evenodd" clip-rule="evenodd" d="M293.498 285.873C292.174 286.227 290.548 286.088 289.733 284.986C289.098 284.128 289.144 282.934 289.453 281.912C289.909 280.409 290.934 279.026 292.379 278.411C293.824 277.797 295.686 278.098 296.674 279.319C297.582 280.439 297.596 282.127 296.897 283.389C296.199 284.65 294.891 285.5 293.498 285.873L293.498 285.873Z" fill="#FFB61D"/>
<path fill-rule="evenodd" clip-rule="evenodd" d="M288.252 275.729C287.959 276.469 287.376 277.156 286.593 277.304C285.294 277.55 284.22 276.266 283.737 275.035C283.275 273.857 283.052 272.586 283.085 271.321C283.095 270.946 283.197 270.484 283.56 270.392C284.976 270.032 286.575 270.527 287.539 271.624C288.504 272.722 288.791 274.371 288.252 275.729H288.252Z" fill="#FFB61D"/>
<path fill-rule="evenodd" clip-rule="evenodd" d="M508.227 458.568C507.377 458.952 506.07 459.069 505.801 458.175C508.829 456.363 511.857 454.551 514.885 452.739C513.303 455.28 510.954 457.336 508.227 458.568Z" fill="#E7EAEE"/>
<path fill-rule="evenodd" clip-rule="evenodd" d="M270.299 281.87C271.16 282.863 271.916 284.03 272.027 285.34C272.138 286.649 271.424 288.099 270.161 288.461C268.928 288.815 267.661 288.084 266.647 287.299C265.493 286.407 264.386 285.345 263.909 283.967C263.431 282.589 263.771 280.837 265.014 280.073C266.743 279.011 268.971 280.336 270.299 281.87H270.299Z" fill="#FFB61D"/>
<path fill-rule="evenodd" clip-rule="evenodd" d="M457.483 450.775C458.78 452.182 460.076 453.588 461.373 454.995C461.581 455.22 461.435 455.655 461.134 455.71C458.593 454.541 456.404 452.619 454.918 450.249C455.375 449.32 456.781 450.013 457.483 450.775L457.483 450.775Z" fill="#E7EAEE"/>
<path fill-rule="evenodd" clip-rule="evenodd" d="M84.9647 398.835C83.7422 397.434 82.5923 395.812 82.4839 393.957C82.414 392.759 82.7911 391.575 83.3078 390.492C85.3628 386.185 89.6803 383.181 94.3418 382.158C99.0032 381.135 103.946 381.952 108.323 383.856C109.913 384.547 111.496 385.426 112.509 386.834C114.091 389.035 113.923 392.137 112.738 394.575C111.553 397.014 109.511 398.916 107.439 400.664C105.529 402.274 103.463 403.85 101.023 404.384C99.7103 404.671 98.3516 404.641 97.0081 404.61C95.6615 404.578 94.3044 404.546 92.9903 404.25C89.7881 403.528 87.1233 401.308 84.9647 398.835M93.8371 390.592C92.7253 389.525 90.9626 388.425 89.8172 389.455C88.8362 390.337 88.0767 391.464 87.6267 392.705C89.8607 392.782 92.1139 392.015 93.8371 390.592M97.0783 385.381C95.7215 385.708 94.3108 386.06 93.2449 386.961C93.9961 387.725 94.8636 388.446 95.9112 388.671C96.9587 388.895 98.2119 388.469 98.6208 387.479C99.0298 386.489 98.12 385.131 97.0783 385.381M100.789 394.648C100.686 395.463 100.586 396.313 100.854 397.09C101.122 397.867 101.876 398.542 102.691 398.433C103.858 398.277 104.37 396.749 105.488 396.377C104.055 395.5 102.448 394.909 100.789 394.648M106.065 387.992C106.971 388.268 108.032 387.486 108.036 386.539C105.788 385.748 103.027 386.98 102.115 389.183C103.495 389.465 105.005 388.994 105.978 387.976M98.2097 397.623C98.0995 397.349 97.9368 397.063 97.6587 396.962C96.7572 396.634 96.5259 398.311 95.6822 398.768C94.8867 399.198 95.0006 400.551 95.7911 400.991C96.5816 401.431 97.659 401.012 98.1288 400.239C98.5986 399.466 98.5468 398.463 98.2097 397.623M91.5754 395.546C90.7621 396.241 89.2788 395.924 88.7148 396.833C88.2219 397.628 89.0264 398.74 89.9587 398.815C90.8909 398.89 91.7401 398.246 92.2967 397.495C92.602 397.083 92.8597 396.573 92.7438 396.074C92.6279 395.574 91.9653 395.213 91.5754 395.546M108.429 392.583C108.729 392.281 109.029 391.979 109.329 391.677C108.551 390.922 107.293 391.098 106.233 391.325C105.906 391.396 105.555 391.478 105.33 391.726C104.807 392.303 105.434 393.307 106.205 393.415C106.976 393.524 107.704 393.076 108.354 392.648L108.429 392.583Z" fill="#00160A"/>
<path fill-rule="evenodd" clip-rule="evenodd" d="M503.184 223.7C500.063 220.871 496.941 218.041 493.819 215.212C492.802 214.29 491.947 212.32 493.247 211.88C494.595 214.421 497.603 215.635 500.46 215.967C503.317 216.298 506.225 215.952 509.074 216.348C511.773 216.723 514.329 217.749 516.892 218.675C531.027 223.779 546.066 225.979 560.279 230.86C561.113 231.146 562.067 231.575 562.245 232.439C562.444 233.404 561.537 234.225 560.673 234.7C556.242 237.137 550.253 236.308 546.651 232.757C544.915 231.046 542.067 232.238 539.72 232.897C535.395 234.111 530.795 233.07 526.425 232.028C521.8 230.925 517.175 229.822 512.55 228.719C510.938 228.335 509.309 227.945 507.828 227.201C506.09 226.329 504.625 225.006 503.184 223.7M555.309 233.663C556.044 233.331 555.208 232.278 554.448 232.007C546.979 229.341 539.393 226.735 531.499 225.978C527.404 225.585 523.361 224.655 519.507 223.22C514.339 221.296 509.092 218.409 503.656 219.335C504.125 222.29 506.977 224.329 509.861 225.127C512.744 225.924 515.799 225.825 518.737 226.391C522.423 227.101 525.824 228.838 529.405 229.967C532.986 231.096 537.05 231.568 540.37 229.815C542.723 228.574 545.63 229.353 548.015 230.531C550.4 231.709 552.676 233.287 555.309 233.663Z" fill="#00160A"/>
<path fill-rule="evenodd" clip-rule="evenodd" d="M745.64 266.052C747.995 264.185 750.349 262.318 752.704 260.451C753.379 259.915 754.108 259.357 754.967 259.282C756.229 259.171 757.311 260.118 758.208 261.012C761.301 264.096 764.238 267.336 767.003 270.717C767.677 271.54 766.83 272.712 766.036 273.421C763.424 275.752 760.812 278.083 758.201 280.415C757.54 281.005 756.832 281.618 755.96 281.774C754.606 282.016 753.346 281.097 752.277 280.232C750.013 278.399 747.749 276.567 745.485 274.734C744.127 273.635 742.651 272.309 742.601 270.562C742.547 268.679 744.164 267.223 745.64 266.052M757.485 266.342C756.808 265.587 756.018 264.775 755.005 264.728C754.217 264.691 753.495 265.133 752.83 265.559C751.644 266.32 750.458 267.081 749.272 267.841C748.806 268.14 748.321 268.459 748.059 268.946C747.392 270.189 748.489 271.614 749.503 272.595C750.99 274.034 752.478 275.473 753.965 276.912C754.422 277.353 754.965 277.827 755.597 277.766C756.044 277.722 756.415 277.416 756.748 277.116C758.02 275.97 759.187 274.708 760.229 273.349C760.967 272.388 761.629 270.967 760.821 270.065C759.709 268.824 758.597 267.583 757.485 266.342V266.342Z" fill="#FFB61D"/>
<path fill-rule="evenodd" clip-rule="evenodd" d="M594.338 140.358C603.616 158.267 600.829 179.769 597.808 199.711C615.313 208.597 630.412 222.169 641.108 238.63C644.434 243.748 647.435 249.952 645.527 255.749C643.212 262.783 634.963 265.704 627.682 267.054C609.451 270.433 590.512 269.942 572.481 265.622C565.673 263.991 557.906 261.977 552.153 265.964C526.775 283.55 491.62 285.079 464.071 271.138C436.521 257.198 417.193 228.844 412.686 198.299C411.826 192.467 406.623 188.436 401.991 184.788C386.138 172.303 372.475 157.046 361.808 139.917C357.35 132.759 353.31 123.993 356.477 116.178C360.136 107.149 371.401 104.175 381.134 103.772C402.763 102.876 424.625 108.907 442.736 120.765C455.194 105.267 473.226 94.3477 492.733 90.4903C512.24 86.633 533.071 89.8673 550.49 99.4579C559.142 104.222 566.901 110.448 574.307 116.983C582.047 123.813 589.59 131.193 594.338 140.358M609.716 243.632C605.86 249.554 597.882 250.995 590.817 251.184C569.359 251.757 548.316 245.86 527.661 240.014C513.258 235.938 498.787 231.837 485.184 225.588C476.926 221.794 469.044 217.233 461.264 212.537C433.452 195.747 405.075 174.969 394.797 144.151C392.79 138.131 396.838 131.3 402.565 128.567C408.292 125.835 415.096 126.444 421.155 128.33C424.3 129.309 427.466 130.629 430.752 130.395C434.038 130.161 437.478 127.687 437.376 124.394C437.269 120.929 433.63 118.8 430.434 117.456C412.353 109.854 392.46 105.526 373.034 108.245C368.922 108.82 364.553 109.875 361.809 112.991C356.838 118.634 359.738 127.453 363.345 134.052C378.529 161.825 402.153 184.327 428.568 201.767C454.984 219.207 484.233 231.881 513.744 243.325C549.479 257.182 587.588 269.555 625.507 263.978C629.299 263.42 633.166 262.646 636.413 260.609C639.66 258.572 642.199 255.015 642.03 251.186C641.915 248.6 640.621 246.228 639.282 244.013C628.982 226.97 613.998 212.789 596.414 203.443C595.559 206.694 594.703 209.946 593.848 213.198C599.2 216.694 604.693 220.326 608.302 225.604C611.911 230.881 613.204 238.274 609.716 243.632M592.304 200.537C593.3 199.595 593.697 198.197 594.025 196.866C597.544 182.551 597.785 167.44 594.722 153.021C589.093 154.382 583.463 155.742 577.833 157.103C575.155 157.751 572.446 158.402 569.691 158.395C566.345 158.388 563.087 157.413 559.783 156.886C552.396 155.709 544.857 156.783 537.453 157.857C534.592 158.272 531.759 157.043 529.227 155.646C511.433 145.833 499.853 126.814 481.49 118.111C479.533 117.183 477.481 116.362 475.831 114.958C472.478 112.105 471.248 107.251 467.701 104.642C470.448 115.842 479.207 124.551 488.448 131.45C497.69 138.348 507.892 144.169 515.688 152.667C519.683 157.02 525.75 158.81 531.604 159.606C537.459 160.402 543.46 160.406 549.134 162.052C553.453 163.305 557.655 165.514 562.146 165.283C566.319 165.069 570.059 162.777 574.033 161.488C579.847 159.602 586.112 159.883 592.217 160.185C593.45 160.246 595.022 160.594 595.203 161.816C595.419 163.28 593.435 163.951 591.955 163.97C584.775 164.059 576.809 162.388 570.995 166.601C566.499 169.858 560.342 169.62 554.965 168.238C549.588 166.856 544.439 164.477 538.922 163.857C535.004 163.417 531.01 163.881 527.119 163.245C516.253 161.47 508.743 151.878 500.256 144.864C493.736 139.474 486.22 135.403 479.6 130.136C472.98 124.87 467.074 117.969 465.613 109.636C465.235 107.479 461.963 108.091 460.107 109.253C455.558 112.103 450.958 114.994 447.26 118.884C443.562 122.774 440.804 127.834 440.766 133.2C440.714 140.663 446.566 147.737 453.906 149.084C460.12 150.224 460.034 161.877 466.347 162.153C470.404 162.33 472.516 166.877 474.332 170.51C476.148 174.142 480.298 177.941 483.723 175.757C485.951 174.336 488.786 175.927 491.107 177.192C493.427 178.458 496.962 179.078 498.176 176.73C493.396 175.914 490.812 169.286 493.777 165.449C496.011 162.558 500.049 161.841 503.702 161.748C507.984 161.638 512.455 162.149 516.074 164.441C519.693 166.733 522.207 171.174 521.181 175.333C519.989 180.161 520.897 185.468 523.624 189.626C525.827 188.209 528.031 186.793 530.234 185.377C533.191 183.477 536.257 181.533 539.725 180.967C543.194 180.401 547.202 181.579 548.901 184.656C550.602 187.737 549.544 191.547 548.451 194.893C554.279 192.713 561.189 193.718 566.155 197.467C572.692 202.403 581.562 204.097 589.458 201.917C590.485 201.633 591.53 201.268 592.304 200.537M560.313 111.115C559.202 110.481 557.801 109.872 556.71 110.539C552.817 112.921 547.825 112.432 543.428 111.21C539.032 109.988 534.743 108.104 530.184 107.913C526.754 107.77 523.348 108.599 519.915 108.601C511.757 108.603 504.396 104.018 497.544 99.5897C496.665 99.0214 495.741 98.4037 495.303 97.453C494.864 96.5023 495.168 95.1322 496.166 94.8143C503.15 102.357 513.831 106.3 524.04 105.106C526.844 104.778 529.637 104.087 532.453 104.285C536.465 104.567 540.107 106.614 543.933 107.855C547.76 109.097 552.424 109.36 555.352 106.602C532.15 88.8845 498.04 86.96 472.992 101.955C472.604 102.187 472.159 102.576 472.317 103C474.866 109.849 482.027 113.566 488.188 117.496C502.145 126.401 513.24 139.081 526.208 149.373C530.164 152.513 535.042 155.589 539.934 154.333C546.933 152.537 554.333 152.324 561.423 153.715C564.541 154.327 567.641 155.248 570.817 155.193C577.353 155.081 583.409 150.86 589.931 151.303C591.829 151.432 593.349 149.476 593.443 147.576C593.537 145.676 592.612 143.888 591.658 142.243C584.189 129.353 573.254 118.494 560.313 111.115M457.206 244.145C463.025 247.669 470.769 245.161 477.135 247.56C480.224 248.724 482.959 251.034 486.252 251.256C489.148 251.451 491.967 249.971 494.86 250.192C497.61 250.403 499.981 252.097 502.33 253.542C511.663 259.282 522.956 261.767 533.836 260.473C536.697 260.133 539.313 261.943 542.056 262.826C544.798 263.709 548.719 262.936 549.099 260.08C533.46 255.631 518.386 249.426 503.352 243.234C472.228 230.416 440.632 217.324 414.37 196.27C415.926 201.372 417.483 206.475 419.039 211.578C420.978 217.933 422.926 224.315 425.766 230.323C437.004 254.1 461.446 269.675 487.036 275.741C498.342 278.421 510.41 279.449 521.449 275.824C514.097 275.214 508.72 268.69 501.876 265.937C494.812 263.096 486.119 264.247 480.194 259.466C472.994 253.655 460.411 255.632 455.762 247.632C454.893 246.136 455.725 243.248 457.206 244.145M441.43 166.462C441.498 170.172 443.595 173.783 446.785 175.681C448.305 176.586 450.08 177.149 451.287 178.444C452.717 179.978 453.033 182.444 452.035 184.289C450.358 187.39 446.106 187.872 442.612 187.403C440.69 187.145 438.756 186.702 437.084 185.719C434.865 184.414 433.293 182.277 431.542 180.39C427.763 176.318 422.912 173.251 417.613 171.583C418.022 175.625 421.3 178.705 424.426 181.301C438.027 192.598 452.859 202.331 468.017 211.435C472.967 214.408 477.959 217.318 483.109 219.929C501.985 229.496 522.652 234.878 543.136 240.193C550.54 242.114 557.945 244.035 565.35 245.956C566.372 246.221 567.463 246.485 568.467 246.157C569.551 245.803 570.301 244.837 570.977 243.919C575.816 237.353 580.424 230.617 584.79 223.727C585 223.395 585.219 223.021 585.15 222.635C585.058 222.116 584.511 221.831 584.027 221.623C576.07 218.2 568.113 214.777 560.156 211.355C558.727 210.74 557.238 210.113 555.683 210.166C553.828 210.228 552.16 211.241 550.409 211.858C539.508 215.696 528.273 203.966 516.909 206.067C513.164 206.759 509.862 208.907 506.256 210.131C502.65 211.356 498.136 211.417 495.594 208.581C494.122 206.939 493.626 204.674 492.762 202.645C491.898 200.616 490.292 198.565 488.089 198.476C487.008 198.431 485.974 198.875 484.912 199.079C480.725 199.885 476.73 196.916 474.068 193.585C471.406 190.254 469.35 186.311 465.887 183.823C461.945 180.992 456.641 180.406 452.975 177.225C449.259 174.001 447.864 168.643 443.994 165.606C443.322 165.079 442.254 164.672 441.705 165.325C441.449 165.63 441.423 166.063 441.43 166.462M544.063 196.204C543.279 193.693 546.21 191.342 545.971 188.722C545.677 185.496 541.206 184.712 538.085 185.581C535.087 186.416 532.285 187.942 529.957 190.007C527.274 192.386 523.637 195.69 520.769 193.537C520.015 192.971 519.541 192.115 519.132 191.266C516.538 185.879 515.687 179.669 516.739 173.783C517.261 170.859 515.007 168.012 512.277 166.84C509.548 165.668 506.464 165.772 503.496 165.896C501.613 165.975 499.571 166.114 498.151 167.353C496.731 168.592 496.595 171.349 498.333 172.079C500.858 173.142 502.268 176.31 501.365 178.897C498.435 181.804 493.683 181.389 489.601 180.771C486.44 180.293 483.278 179.814 480.117 179.336C477.81 178.987 475.369 178.577 473.606 177.049C470.161 174.06 470.206 167.61 465.876 166.173C464.714 165.787 463.437 165.88 462.267 165.517C456.412 163.7 457.358 152.793 451.317 151.753C441.743 150.104 434.916 139.183 437.629 129.854C428.756 141.347 421.816 154.329 417.19 168.092C423.369 169.323 429.154 172.463 433.553 176.974C435.757 179.233 437.723 181.902 440.605 183.188C443.487 184.474 447.679 183.553 448.469 180.497C444.834 180.115 441.842 177.388 439.849 174.324C438.481 172.222 437.43 169.8 437.529 167.294C437.628 164.788 439.112 162.224 441.495 161.443C444.666 160.404 447.995 162.754 449.891 165.499C451.788 168.244 452.94 171.527 455.293 173.893C457.672 176.285 460.978 177.443 463.99 178.964C468.549 181.265 472.615 184.539 475.838 188.502C478.08 191.26 480.303 194.599 483.808 195.195C487.017 195.74 490.588 193.769 493.423 195.369C497.638 197.748 496.259 205.789 500.896 207.175C502.936 207.784 505.03 206.627 506.943 205.694C515.87 201.346 526.841 201.463 535.672 206C538.009 207.201 540.298 208.721 542.914 208.969C547.133 209.369 550.954 206.379 555.17 205.949C560.036 205.453 564.496 208.366 568.781 210.726C573.545 213.349 578.616 215.414 583.857 216.865C584.778 217.12 585.77 217.354 586.67 217.036C587.777 216.644 588.442 215.531 588.938 214.466C590.295 211.549 591.079 208.366 591.232 205.152C582.185 206.609 571.779 207.702 564.921 201.624C561.58 198.662 556.894 197.282 552.481 197.958C549.361 198.437 545.004 199.217 544.063 196.204M403.377 152.475C406.208 157.081 409.039 161.688 411.87 166.295C412.216 166.858 412.804 167.506 413.409 167.24C413.766 167.084 413.921 166.673 414.043 166.303C417.613 155.445 422.652 145.071 428.978 135.551C429.423 134.881 428.518 134.143 427.771 133.846C425.554 132.963 423.332 132.078 421.034 131.434C416.541 130.176 411.786 129.861 407.167 130.516C403.94 130.974 400.403 132.208 399.042 135.169C398.415 136.53 398.347 138.082 398.448 139.577C398.597 141.795 399.095 143.988 399.919 146.052C400.822 148.313 402.103 150.401 403.377 152.475M605.075 244.293C608.384 242.434 609.439 237.933 608.418 234.278C607.396 230.623 604.778 227.652 602.119 224.944C599.199 221.971 596.132 219.143 592.933 216.472C587.624 226.69 581.573 236.522 574.843 245.865C574.413 246.461 574.788 247.359 575.418 247.738C576.047 248.116 576.825 248.118 577.559 248.103C585.559 247.936 593.544 247.053 601.388 245.467C602.658 245.21 603.945 244.927 605.075 244.293M470.423 251.068C475.157 251.462 478.87 255.131 483.142 257.208C491.122 261.088 501.265 259.451 508.525 264.553C510.759 266.123 512.583 268.258 514.954 269.613C517.521 271.081 520.534 271.526 523.477 271.813C529.437 272.395 536.281 272.099 540.223 267.591C540.447 267.336 540.662 267.061 540.758 266.736C541.243 265.091 538.762 264.359 537.05 264.455C523.439 265.222 509.08 263.131 498.07 255.092C495.185 252.986 491.213 255.073 487.642 255.151C483.96 255.231 480.658 253.096 477.269 251.653C472.548 249.644 467.285 248.924 462.197 249.591C464.165 251.679 467.563 250.83 470.423 251.068V251.068Z" fill="#00160A"/>
<path fill-rule="evenodd" clip-rule="evenodd" d="M266.053 226.145C264.249 224.697 263.555 222.318 262.491 220.265C258.911 213.355 250.659 209.902 242.877 209.85C235.096 209.799 227.6 212.544 220.305 215.251C208.677 219.567 197.05 223.883 185.422 228.199C174.584 232.221 162.682 237.203 157.952 247.751C153.454 257.782 157.019 269.404 160.616 279.792C169.281 304.814 177.945 329.836 186.61 354.858C187.713 358.043 189.744 361.874 193.102 361.584C218.612 359.384 244.192 378.711 249.045 403.85C265.12 400.333 280.649 394.332 294.911 386.125C298.829 383.871 302.784 381.324 305.196 377.501C309.603 370.517 307.726 361.454 305.702 353.448C301.983 338.737 298.265 324.027 294.546 309.316C284.443 308.967 274.063 307.683 265.239 302.75C249.354 293.869 241.541 272.876 247.568 255.703C253.595 238.531 272.643 227.047 290.671 229.534C308.7 232.021 323.868 248.073 325.533 266.196C327.197 284.319 315.344 302.772 298.239 308.987C301.334 320.576 304.429 332.166 307.523 343.755C309.731 352.02 311.956 360.434 311.656 368.984C311.183 382.461 304.527 394.863 297.705 406.495C277.233 441.4 251.463 476.377 213.61 490.683C199.731 495.928 184.884 498.096 170.102 499.377C162.386 500.046 154.557 500.478 146.945 499.049C138.292 497.426 130.262 493.461 122.62 489.09C63.0369 455.006 20.8617 392.084 11.9755 324.018C11.0393 316.847 10.4411 309.581 8.36077 302.655C6.46814 296.354 3.38116 290.453 1.62491 284.112C-2.12621 270.57 0.718613 255.361 9.11102 244.09C13.5846 238.082 14.4691 230.231 16.9193 223.153C19.2642 216.379 23.1558 210.145 28.2124 205.065C33.7555 199.495 40.5808 195.378 47.5501 191.748C83.3292 173.111 125.044 166.09 164.953 171.989C204.861 177.887 242.761 196.675 271.619 224.866C271.304 227.157 267.857 227.592 266.053 226.145ZM212.513 389.017C209.771 385.716 207.082 382.239 205.722 378.168C204.363 374.097 204.544 369.276 207.196 365.901C205.82 364.413 203.383 364.046 201.63 365.063C199.877 366.079 198.985 368.376 199.593 370.31C200.72 373.895 198.33 378.181 194.688 379.107C196.881 374.783 197.597 369.726 196.692 364.963C196.627 364.622 196.534 364.251 196.253 364.048C195.656 363.618 194.88 364.282 194.502 364.913C192.247 368.679 192.361 373.492 193.774 377.647C195.188 381.802 197.76 385.446 200.3 389.026C206.678 386.948 214.371 391.233 215.962 397.751C217.34 403.397 222.978 407.283 228.742 408.029C234.507 408.775 240.312 406.915 245.53 404.355C236.198 403.098 226.36 401.632 219.011 395.745C216.574 393.792 214.509 391.42 212.513 389.017ZM21.2876 278.589C16.5161 267.572 14.0409 255.682 12.6412 243.758C4.9815 254.737 1.96597 268.85 4.46968 282.001C6.97338 295.152 14.9636 307.169 26.1218 314.566C29.6287 316.891 30.2559 321.657 31.0409 325.79C32.9459 335.823 37.6137 345.084 42.2286 354.193C51.1459 371.795 60.1729 389.566 72.808 404.722C80.5982 414.066 91.3116 422.907 103.423 421.759C116.504 420.52 125.944 407.501 127.648 394.472C129.353 381.444 125.181 368.442 121.064 355.965C116.559 342.309 112.054 328.653 107.548 314.998C107.011 313.369 106.55 311.358 107.737 310.12C115.068 302.474 117.047 290.894 115.387 280.432C113.727 269.97 108.899 260.316 104.084 250.881C102.39 251.448 102.461 253.825 102.72 255.593C104.662 268.82 97.736 282.442 86.9705 290.369C76.205 298.296 62.191 300.975 48.8797 299.733C43.8346 299.262 38.7248 298.22 34.3857 295.603C28.1549 291.846 24.1793 285.265 21.2876 278.589ZM162.672 444.294C157.021 440.317 152.568 434.885 148.467 429.324C141.875 420.384 135.996 410.918 130.904 401.047C128.33 408.337 123.722 414.897 117.738 419.791C110.881 425.398 100.795 425.715 92.5332 422.522C84.2715 419.329 77.5328 413.146 71.5493 406.615C50.1312 383.24 35.9093 353.899 27.418 323.353C26.5507 320.234 25.5883 316.863 23.0135 314.9C20.4387 312.936 15.7558 313.621 15.097 316.791C14.956 317.47 15.0138 318.172 15.0722 318.863C16.0809 330.794 17.106 342.817 20.4291 354.32C22.0284 359.857 24.1479 365.227 26.3117 370.568C34.2496 390.162 42.9433 409.69 55.6359 426.596C72.4288 448.964 95.4297 465.734 118.072 482.156C126.526 488.288 136.636 494.747 146.671 491.854C150.753 490.677 154.249 488.045 157.441 485.242C168.41 475.607 176.982 463.263 182.178 449.62C175.351 450.689 168.323 448.271 162.672 444.294ZM110.907 209.536C101.222 202.219 90.6249 195.767 78.8751 192.719C67.1253 189.672 54.0464 190.329 43.6034 196.517C40.0093 198.647 36.7972 201.376 33.8712 204.357C23.942 214.475 17.137 228.073 16.924 242.247C16.8114 249.737 18.497 257.133 20.4229 264.372C22.2788 271.349 24.426 278.389 28.493 284.353C32.5599 290.318 38.8653 295.139 46.0548 295.79C57.3357 296.812 69.0814 295.408 79.0543 290.038C89.0272 284.667 96.9889 274.966 98.6078 263.755C99.7906 255.564 97.6331 247.273 97.6643 238.997C97.6794 234.978 98.2147 230.962 99.2526 227.08C100.195 223.556 101.614 220.042 104.179 217.449C106.745 214.856 110.651 213.353 114.138 214.425C114.317 212.388 112.538 210.768 110.907 209.536ZM264.46 402.528C252.226 406.316 239.991 410.104 227.757 413.892C219.348 416.496 210.81 419.122 202.01 419.369C193.21 419.616 183.961 417.188 177.755 410.944C181.118 419.098 186.922 426.227 194.224 431.174C196.079 432.431 195.353 435.284 194.427 437.325C189.174 448.901 183.878 460.554 176.578 470.961C169.277 481.368 159.769 490.57 148.069 495.541C150.837 496.7 153.786 497.425 156.776 497.683C161.028 498.05 165.299 497.475 169.528 496.902C188.077 494.389 207.049 491.745 223.658 483.114C238.314 475.498 250.262 463.661 261.96 452.001C271.568 442.424 281.581 432.138 284.755 418.948C287.863 406.034 302.419 397.694 303.801 384.483C292.599 393.73 278.335 398.232 264.46 402.528ZM117.352 269.82C120.605 279.391 121.523 290.11 117.829 299.52C115.716 304.899 112.113 309.94 112.029 315.719C111.99 318.421 112.741 321.068 113.544 323.648C120.437 345.781 131.831 367.14 132.12 390.32C132.189 395.794 134.834 400.875 137.601 405.598C142.902 414.646 148.9 423.285 155.524 431.414C160.911 438.026 167.235 444.62 175.534 446.592C177.66 447.098 179.967 447.263 181.976 446.401C185.606 444.842 187.105 440.593 188.216 436.802C188.772 434.9 189.226 432.558 187.804 431.177C177.456 421.124 169.793 408.333 165.809 394.467C164.739 390.74 163.909 386.888 162.033 383.493C160.916 381.471 159.454 379.662 158.228 377.704C155.144 372.779 153.638 367.059 152.085 361.459C146.203 340.248 139.048 319.39 130.673 299.035C128.196 293.015 127.419 286.454 126.667 279.988C126.415 277.823 126.163 275.657 125.911 273.492C124.874 264.586 123.895 255.224 127.317 246.936C130.341 239.61 127.347 231.166 123.127 224.457C120.781 220.727 117.315 216.871 112.915 217.11C108.31 217.36 105.255 221.944 103.536 226.222C101.365 231.627 100.184 238.106 103.285 243.037C108.668 251.593 114.099 260.249 117.352 269.82ZM113.826 207.748C121.622 214.258 128.426 222.411 131.367 232.132C132.016 234.275 133.93 237.088 135.733 235.762C145.318 228.716 156.56 224.348 167.656 220.059C172.402 218.225 177.147 216.39 181.893 214.556C197.535 208.51 213.397 202.409 230.067 200.578C220.06 192.14 207.976 186.489 195.577 182.291C163.648 171.482 128.649 169.914 95.8812 177.824C92.7548 178.579 89.6438 179.419 86.6245 180.528C80.0444 182.943 73.8683 186.637 66.9687 187.873C84.085 189.704 100.613 196.715 113.826 207.748ZM144.35 305.43C148.832 307.428 155.347 301.499 158.274 305.438C152.965 307.691 147.46 309.483 141.842 310.787C140.691 311.054 140.692 312.686 140.982 313.832C143.197 322.577 146.391 331.074 150.487 339.112C154.789 336.58 160.573 338.053 164.306 341.368C168.038 344.683 170.12 349.446 171.79 354.15C173.228 358.198 174.446 362.324 175.437 366.504C176.994 373.071 177.296 381.438 171.568 385.009C169.479 386.312 170.413 389.509 171.584 391.675C174.335 396.764 177.149 401.912 181.16 406.08C191.805 417.144 210.723 418.935 223.255 410.064C213.109 407.682 203.911 401.469 197.913 392.946C193.774 387.064 191.182 380.257 188.665 373.519C177.695 344.145 167.358 314.535 157.663 284.716C155.316 277.497 152.989 270.18 152.451 262.609C151.912 255.037 153.323 247.073 157.844 240.975C163.499 233.349 172.967 229.767 181.906 226.567C201.908 219.407 221.91 212.246 241.913 205.085C231.144 200.714 218.974 204.468 207.979 208.235C186.945 215.441 165.85 222.671 145.847 232.38C142.271 234.115 138.677 235.968 135.807 238.719C127.12 247.046 127.386 260.966 129.975 272.717C130.112 273.336 130.304 274.024 130.856 274.333C131.317 274.59 131.885 274.499 132.403 274.4C136.702 273.583 141 272.765 145.299 271.948C149.516 271.146 152.791 275.542 154.447 279.503C156.795 285.118 158.263 291.1 158.783 297.163C158.894 298.459 158.906 299.92 158.011 300.863C157.116 301.805 155.052 301.426 155.079 300.126C155.159 296.289 154.805 292.442 154.025 288.684C153.125 284.34 151.491 279.873 148.013 277.119C144.535 274.365 138.804 274.11 136.042 277.583C143.203 284.705 146.438 295.549 144.35 305.43ZM302.299 295.788C302.694 290.014 306.937 284.697 312.479 283.03C315.809 282.028 318.128 278.83 318.955 275.453C319.781 272.075 319.348 268.522 318.709 265.104C316.667 254.19 311.949 242.926 302.451 237.175C292.154 230.939 278.88 232.727 267.531 236.744C262.585 238.494 257.444 240.911 254.846 245.47C253.248 248.274 252.809 251.569 252.4 254.77C251.565 261.317 250.728 267.927 251.331 274.499C251.935 281.071 254.107 287.695 258.591 292.537C261.714 295.909 266.5 298.369 270.869 296.944C274.294 295.827 277.436 299.01 280.678 300.579C285.105 302.72 290.33 301.833 295.158 300.901C298.264 300.301 302.084 298.944 302.299 295.788ZM170.69 365.673C169.882 363.05 169.074 360.427 168.266 357.805C166.555 352.25 164.659 346.402 160.304 342.554C158.566 341.017 155.935 339.869 153.996 341.144C152.028 342.439 152.075 345.3 152.429 347.63C153.827 356.842 156.537 365.855 160.452 374.311C161.768 377.154 163.269 379.999 165.594 382.098C166.171 382.619 166.828 383.104 167.595 383.23C169.23 383.5 170.663 382.068 171.398 380.582C173.661 376.007 172.193 370.551 170.69 365.673ZM240.298 393.259C232.735 392.307 225.657 387.994 221.343 381.709C219.727 379.355 218.472 376.694 218.129 373.859C217.926 372.185 218.03 370.421 217.316 368.893C216.602 367.365 214.62 366.235 213.209 367.159C213.181 371.756 213.233 376.645 215.714 380.515C216.569 381.849 217.678 382.997 218.78 384.134C222.236 387.7 225.735 391.28 229.839 394.076C233.943 396.873 238.742 398.866 243.708 398.884C243.458 396.52 242.656 393.556 240.298 393.259ZM209.899 365.853C208.275 367.277 207.979 369.682 208.068 371.841C208.37 379.146 211.889 386.149 217.148 391.228C222.407 396.308 229.304 399.529 236.476 400.952C238.234 401.301 240.131 401.532 241.76 400.785C236.912 400.131 232.224 398.319 228.195 395.543C226.666 394.49 225.235 393.303 223.811 392.111C220.049 388.961 216.269 385.698 213.642 381.554C210.708 376.926 209.369 371.307 209.899 365.853ZM140.584 300.549C140.368 293.424 137.762 286.392 133.282 280.846C130.89 283.065 131.396 286.91 132.091 290.097C133.085 294.66 134.226 299.497 137.561 302.765C137.913 303.111 138.322 303.45 138.814 303.497C140.112 303.62 140.624 301.853 140.584 300.549ZM224.196 381.875C227.89 386.499 233.231 389.778 239.026 390.98C239.379 391.053 239.8 391.1 240.053 390.842C240.25 390.641 240.265 390.326 240.234 390.046C240.027 388.194 238.349 386.828 236.607 386.169C234.864 385.509 232.967 385.345 231.213 384.715C226.964 383.189 223.963 378.722 224.156 374.211C224.24 372.241 222.728 370.325 220.793 369.949C219.664 374.09 221.518 378.521 224.196 381.875ZM209.231 392.285C207.137 391.346 204.723 391.409 202.56 390.639C201.735 390.346 200.945 391.462 201.259 392.28C201.573 393.098 202.527 393.492 203.403 393.528C204.278 393.565 205.146 393.336 206.022 393.332C209.157 393.317 211.808 396.737 211.01 399.77C210.703 400.934 212 402.18 213.151 401.826C214.52 398.29 212.691 393.838 209.231 392.285ZM232.639 379.268C230.797 377.452 228.94 375.622 226.777 374.203C226.213 379.124 230.857 383.956 235.797 383.589C236.251 383.114 235.767 382.354 235.3 381.893C234.413 381.018 233.526 380.143 232.639 379.268ZM206.933 397.426C207.411 398.151 208.884 397.757 208.714 396.905C207.654 395.698 206.078 394.96 204.473 394.919C204.689 396.116 205.649 397.146 206.829 397.444M191.615 365.547C191.566 364.941 190.858 364.486 190.287 364.695C190.006 365.572 190.23 366.592 190.853 367.271C191.652 367.28 192.185 366.157 191.673 365.543M173.107 403.178C173.106 404.081 173.61 404.969 174.387 405.431C174.855 404.53 174.092 403.259 173.076 403.249" fill="#00160A"/>
<path fill-rule="evenodd" clip-rule="evenodd" d="M736.372 294.94C735.751 293.399 733.129 294.114 732.63 295.699C732.132 297.283 732.936 298.947 733.617 300.461C740.537 315.849 735.028 335.794 721.192 345.448C717.664 343.291 716.242 338.528 712.518 336.733C710.801 335.905 708.83 335.838 706.925 335.786C701.262 335.631 695.6 335.476 689.937 335.321C687.871 335.265 685.383 335.434 684.38 337.241C682.194 341.18 676.347 342.752 672.806 339.966C669.266 337.18 669.872 330.519 674.066 328.874C675.056 328.486 676.181 328.348 676.998 327.668C677.732 327.057 678.086 326.115 678.41 325.217C680.607 319.131 682.804 313.046 685.002 306.96C685.416 305.814 685.835 304.634 685.806 303.415C685.746 300.931 683.87 298.889 681.945 297.318C680.02 295.747 677.848 294.289 676.763 292.054C675.677 289.819 676.314 286.511 678.693 285.793C691.172 282.03 705.2 279.642 716.818 285.55C718.807 286.561 720.79 287.831 723.02 287.894C725.25 287.956 727.716 286.131 727.31 283.938C726.738 280.852 721.317 279.55 722.281 276.564C722.489 275.919 722.987 275.417 723.469 274.941C728.397 270.071 733.326 265.2 738.255 260.329C738.766 257.565 734.747 256.055 732.159 257.15C729.57 258.245 727.707 260.654 725.107 261.722C719.85 263.88 714.22 259.888 710.058 256.019C695.162 242.169 681.95 226.509 670.807 209.492C670.296 208.711 669.769 207.853 669.836 206.922C669.922 205.726 670.942 204.841 671.883 204.098C680.078 197.627 688.273 191.155 696.468 184.684C698.447 183.121 701.546 181.628 703.176 183.553C718.266 201.375 733.357 219.197 748.448 237.02C749.168 237.87 749.912 238.769 750.136 239.86C750.595 242.103 748.724 244.13 746.83 245.416C744.936 246.701 742.716 247.859 741.848 249.978C740.981 252.096 742.873 255.219 744.991 254.351C755.835 246.561 767.17 238.559 780.32 236.247C782.809 235.81 785.513 235.618 787.728 236.834C792.655 239.54 791.962 246.797 790.089 252.098C786.671 261.769 781.605 270.856 775.174 278.847C773.893 280.439 772.47 282.352 773.011 284.323C773.775 287.108 777.643 287.45 780.411 286.625C783.179 285.799 786.212 284.408 788.788 285.714C789.928 286.291 790.76 287.319 791.558 288.317C805.027 305.183 818.497 322.05 831.967 338.916C822.661 346.235 813.188 353.341 803.558 360.228C802.606 360.908 801.545 361.618 800.379 361.522C798.999 361.407 797.988 360.219 797.141 359.123C784.223 342.411 771.305 325.699 758.387 308.987C756.735 306.849 758.291 303.652 760.419 301.987C762.547 300.321 765.251 299.32 766.892 297.173C768.533 295.027 768.098 291.023 765.426 290.617C763.906 290.386 762.511 291.443 761.413 292.518C758.347 295.522 755.809 299.284 751.915 301.09C746.26 303.711 738.702 300.72 736.372 294.94M723.412 340.066C731.294 330.978 736.239 318.31 732.794 306.784C729.91 297.134 721.412 289.745 711.794 286.758C702.176 283.772 691.632 284.806 682.121 288.117C681.265 288.415 680.266 288.924 680.233 289.829C680.212 290.386 680.585 290.872 680.939 291.303C694.274 307.538 707.609 323.773 720.943 340.008C721.272 340.408 721.67 340.843 722.188 340.845C722.688 340.848 723.085 340.444 723.412 340.066M785.162 250.461C780.113 250.003 776.093 244.635 777.074 239.661C757.687 248.353 740.266 261.399 726.468 277.556C731.835 284.755 737.858 291.466 744.436 297.578C745.115 298.208 745.868 298.865 746.79 298.956C747.791 299.055 748.716 298.464 749.539 297.887C765.342 286.821 778.038 271.368 785.828 253.718C786.355 252.525 786.461 250.579 785.162 250.461M714.216 235.85C715.301 234.958 716.488 233.841 716.394 232.44C716.325 231.407 715.565 230.569 714.846 229.823C711.642 226.496 708.439 223.169 705.235 219.842C704.324 218.896 702.819 218.743 701.561 219.121C700.304 219.499 699.233 220.318 698.194 221.121C697.39 221.742 696.558 222.982 697.359 223.605C701.689 226.976 705.576 230.915 708.889 235.289C709.493 236.086 710.172 236.959 711.155 237.143C712.281 237.353 713.331 236.579 714.216 235.85M725.806 255.635C727.086 255.898 728.297 255.032 729.317 254.216C730.188 253.519 731.143 252.65 731.099 251.535C731.069 250.781 730.576 250.134 730.105 249.544C726.874 245.495 723.643 241.445 720.412 237.396C720.188 237.115 719.936 236.817 719.585 236.743C719.234 236.67 718.882 236.842 718.568 237.017C717.271 237.741 716.048 238.599 714.925 239.571C714.469 239.967 714.004 240.423 713.892 241.017C713.761 241.708 714.141 242.384 714.517 242.979C717.133 247.125 720.257 250.951 723.796 254.344C724.379 254.903 725.015 255.473 725.806 255.635M680.84 327.323C680.765 327.516 680.689 327.715 680.693 327.923C680.703 328.515 681.381 328.912 681.97 328.851C682.558 328.79 683.061 328.416 683.53 328.055C687.703 324.849 691.876 321.643 696.048 318.437C696.7 317.936 697.415 317.314 697.411 316.492C697.408 315.85 696.959 315.308 696.535 314.827C694.701 312.75 692.867 310.672 691.034 308.595C690.747 308.27 690.438 307.931 690.024 307.803C688.892 307.454 688.019 308.795 687.591 309.899C685.341 315.707 683.091 321.515 680.84 327.323M701.91 322.07C701.658 321.776 701.392 321.47 701.031 321.329C700.513 321.125 699.932 321.306 699.41 321.5C693.807 323.582 688.78 327.193 685.019 331.838C685.875 332.311 686.904 332.304 687.882 332.285C694.531 332.156 701.18 332.027 707.829 331.898C708.559 331.884 709.568 331.531 709.381 330.825C706.891 327.907 704.4 324.989 701.91 322.07M684.158 200.157C683.706 200.608 683.224 201.126 683.216 201.764C683.21 202.194 683.425 202.592 683.633 202.968C685.963 207.159 688.292 211.35 690.622 215.541C691.125 216.446 691.65 217.377 692.472 218.007C693.294 218.636 694.498 218.888 695.367 218.324C696.575 217.541 697.783 216.758 698.991 215.974C699.883 215.396 700.828 214.091 699.965 213.47C694.972 209.877 690.904 205.009 688.255 199.458C687.902 198.72 686.906 198.489 686.126 198.736C685.347 198.983 684.737 199.58 684.158 200.157M706.153 242.468C707.154 241.475 707.203 239.814 706.648 238.518C706.093 237.222 705.053 236.206 704.039 235.227C701.27 232.552 698.5 229.876 695.73 227.201C694.958 226.455 694.158 225.691 693.159 225.299C692.16 224.906 690.901 224.974 690.158 225.749C688.778 227.191 690.066 229.526 691.351 231.052C693.843 234.011 696.335 236.969 698.827 239.927C699.768 241.045 700.749 242.194 702.061 242.841C703.372 243.487 705.115 243.497 706.153 242.468M711.196 207.166C713.126 207.134 714.364 204.839 714.04 202.937C713.715 201.034 712.352 199.5 711.046 198.078C708.362 195.156 705.678 192.235 702.993 189.313C702.116 188.358 700.954 187.313 699.703 187.651C698.601 187.948 698.039 189.265 698.192 190.395C698.345 191.526 699.023 192.507 699.681 193.439C702.258 197.086 704.834 200.734 707.411 204.381C708.354 205.716 709.562 207.193 711.196 207.166M762.378 307.214C762.304 307.659 762.565 308.084 762.814 308.46C765.358 312.297 767.902 316.133 770.445 319.969C771.204 321.114 772.68 321.734 774.029 321.476C775.378 321.218 776.52 320.097 776.803 318.753C777.211 316.815 775.964 314.954 774.782 313.364C772.658 310.508 770.535 307.652 768.411 304.796C767.75 303.906 766.401 303.79 765.384 304.23C764.366 304.67 763.604 305.532 762.877 306.368C762.659 306.619 762.432 306.887 762.378 307.214M783.476 315.484C784.214 314.979 784.992 314.425 785.316 313.592C785.865 312.184 784.912 310.675 784.004 309.467C781.865 306.623 779.706 303.793 777.528 300.978C776.636 299.825 775.618 298.596 774.188 298.312C772.929 298.061 771.543 298.7 770.916 299.82C770.288 300.94 770.467 302.455 771.338 303.398C774.684 307.02 777.463 311.163 779.545 315.632C780.18 316.994 782.236 316.333 783.476 315.484M674.458 208.48C674.703 209.63 675.487 210.577 676.246 211.474C679.309 215.093 682.372 218.712 685.435 222.332C685.673 222.613 685.916 222.899 686.222 223.104C686.959 223.599 688.03 223.518 688.684 222.919C689.338 222.319 689.511 221.259 689.083 220.482C686.42 215.656 683.757 210.83 681.094 206.004C680.273 204.517 678.299 203.786 676.708 204.38C675.116 204.974 674.103 206.819 674.458 208.48M798.182 337.938C797.734 338.435 797.258 339.002 797.274 339.671C797.288 340.242 797.659 340.733 798.014 341.18C800.503 344.317 803.004 347.446 805.516 350.566C805.933 351.083 806.372 351.618 806.977 351.895C808.444 352.566 810.073 351.468 811.312 350.434C811.858 349.978 812.456 349.402 812.389 348.694C812.349 348.276 812.079 347.922 811.82 347.592C808.923 343.913 806.026 340.233 803.129 336.554C802.522 335.782 801.335 335.689 800.431 336.073C799.527 336.457 798.84 337.208 798.182 337.938M692.519 198.62C694.392 203.707 697.83 208.453 702.764 210.7C703.977 211.253 705.736 211.476 706.355 210.294C706.98 209.102 705.797 207.808 704.813 206.889C700.903 203.233 698.574 198.239 696.337 193.377C695.637 191.855 693.095 192.279 692.3 193.754C691.506 195.229 691.94 197.048 692.519 198.62M790.735 321.409C789.936 320.318 789.095 319.19 787.898 318.559C786.701 317.928 785.04 317.957 784.172 318.996C782.792 320.648 784.299 323.065 785.697 324.702C788.4 327.867 790.86 331.239 793.047 334.78C793.896 336.154 796.008 335.231 797.252 334.203C797.902 333.666 798.62 332.94 798.429 332.119C798.359 331.821 798.174 331.565 797.993 331.318C795.574 328.015 793.155 324.712 790.735 321.409M784.142 290.882C784.044 292.097 784.739 293.219 785.406 294.239C788.19 298.493 790.992 302.772 794.461 306.489C796.535 306.355 797.725 303.819 797.302 301.784C796.878 299.749 795.398 298.131 794.069 296.532C792.293 294.395 790.694 292.111 789.294 289.711C788.705 288.701 787.428 288.147 786.288 288.406C785.149 288.665 784.237 289.718 784.142 290.882M787.423 340.146C788.331 340.771 789.675 340.658 790.465 339.89C791.322 339.057 791.44 337.678 791.066 336.542C790.693 335.407 789.916 334.456 789.155 333.534C786.954 330.868 784.753 328.202 782.552 325.536C781.731 324.541 780.856 323.507 779.653 323.04C778.451 322.573 776.83 322.914 776.317 324.097C775.774 325.345 776.663 326.717 777.505 327.786C780.478 331.56 783.45 335.334 786.422 339.108C786.721 339.487 787.026 339.872 787.423 340.146M813.316 321.549C813.156 320.929 812.722 320.423 812.3 319.942C809.189 316.39 806.078 312.838 802.968 309.286C802.717 308.999 802.446 308.7 802.081 308.592C801.72 308.486 801.334 308.587 800.971 308.688C800.093 308.933 799.171 309.203 798.537 309.859C797.903 310.515 797.709 311.688 798.378 312.308C800.907 314.651 803.168 317.284 805.102 320.139C806.228 321.799 807.383 323.651 809.273 324.323C811.163 324.996 813.816 323.491 813.316 321.549M724.402 232.669C723.574 233.78 724.12 235.361 724.794 236.571C726.814 240.195 729.734 243.221 732.62 246.202C733.361 246.967 734.137 247.756 735.137 248.125C736.136 248.494 737.426 248.309 738.01 247.418C738.813 246.192 737.896 244.6 737.006 243.436C734.764 240.5 732.522 237.564 730.279 234.628C729.547 233.67 728.776 232.679 727.694 232.147C726.611 231.616 725.123 231.702 724.402 232.669M820.322 339.49C821.309 340.706 822.802 342.055 824.223 341.397C825.459 340.823 825.957 338.912 827.32 338.905C824.928 335.824 822.536 332.743 820.145 329.662C819.181 328.421 818.145 327.124 816.68 326.556C815.214 325.989 813.211 326.498 812.721 327.991C812.269 329.369 813.242 330.771 814.156 331.897C816.212 334.428 818.267 336.959 820.322 339.49M730.721 223.305C728.317 219.542 725.606 215.975 722.624 212.652C721.839 211.778 721.036 210.921 720.233 210.064C719.576 209.363 718.871 208.631 717.945 208.373C716.834 208.064 715.546 208.584 714.961 209.578C714.377 210.572 714.548 211.95 715.359 212.771C718.525 215.975 721.691 219.179 724.857 222.383C725.688 223.225 726.568 224.096 727.699 224.442C728.83 224.788 730.279 224.402 730.721 223.305M745.459 241.181C745.752 240.95 746.067 240.678 746.106 240.307C746.147 239.916 745.864 239.573 745.6 239.282C742.161 235.496 738.722 231.71 735.283 227.924C734.601 227.173 733.72 226.352 732.726 226.554C731.762 226.75 731.237 227.888 731.368 228.863C731.499 229.838 732.101 230.675 732.685 231.468C734.109 233.401 735.534 235.335 736.959 237.269C738.631 239.54 740.382 241.881 742.851 243.245C743.72 242.557 744.59 241.869 745.459 241.181M796.361 315.401C795.525 314.481 794.417 313.472 793.214 313.787C792.132 314.07 791.587 315.374 791.76 316.48C791.933 317.585 792.628 318.528 793.301 319.422C795.236 321.992 797.172 324.562 799.107 327.133C800.116 328.471 801.535 329.97 803.162 329.567C804.602 329.212 805.283 327.425 804.958 325.978C804.633 324.531 803.599 323.365 802.602 322.268C800.522 319.979 798.441 317.69 796.361 315.401M791.127 343.741C790.192 345.213 791.252 347.106 792.317 348.487C793.981 350.646 795.732 352.739 797.563 354.759C798.288 355.558 799.086 356.383 800.133 356.645C801.269 356.929 802.56 356.418 803.194 355.432C803.827 354.446 803.756 353.059 803.024 352.143C801.313 350.001 799.603 347.86 797.892 345.718C797.028 344.636 796.115 343.516 794.852 342.949C793.588 342.383 791.87 342.573 791.127 343.741M707.681 214.493C706.892 215.648 707.925 217.149 708.9 218.152C712.302 221.658 715.705 225.164 719.108 228.67C719.827 229.411 720.7 230.212 721.728 230.106C723.023 229.972 723.732 228.371 723.423 227.106C723.114 225.841 722.13 224.871 721.188 223.972C718.2 221.119 715.212 218.267 712.224 215.415C711.583 214.803 710.915 214.175 710.077 213.889C709.239 213.603 708.18 213.762 707.681 214.493M779.729 293.225C778.602 293.24 777.837 294.52 777.939 295.642C778.041 296.764 778.739 297.73 779.412 298.633C781.833 301.883 784.254 305.134 786.675 308.384C787.147 309.018 787.643 309.672 788.344 310.037C789.045 310.402 790.013 310.383 790.521 309.779C791.253 308.909 790.622 307.603 789.983 306.663C787.338 302.768 784.693 298.874 782.047 294.979C781.478 294.142 780.741 293.211 779.729 293.225M818.6 343.146C815.56 339.479 812.521 335.813 809.481 332.146C809.115 331.705 808.713 331.239 808.159 331.092C807.077 330.805 806.052 331.972 806.044 333.091C806.036 334.211 806.702 335.211 807.358 336.118C809.383 338.917 811.575 341.597 813.918 344.136C814.75 345.039 815.703 345.977 816.922 346.128C818.14 346.279 819.533 345.145 819.137 343.983C819.03 343.667 818.813 343.403 818.6 343.146M717.69 258.14C718.457 258.971 719.356 259.865 720.487 259.881C721.618 259.898 722.633 258.362 721.785 257.614C718.34 254.572 715.281 251.092 712.706 247.286C712.015 246.264 711.287 245.158 710.141 244.702C708.995 244.246 707.355 244.885 707.327 246.118C707.31 246.848 707.837 247.465 708.333 248.002C711.452 251.381 714.571 254.761 717.69 258.14M780.696 241.99C781.046 244.625 783.578 246.784 786.234 246.713C786.67 246.701 787.135 246.622 787.45 246.321C787.759 246.026 787.86 245.581 787.946 245.162C788.349 243.208 788.376 240.559 786.49 239.908C785.713 239.64 784.843 239.848 784.048 239.639C783.492 239.493 782.98 239.146 782.405 239.147C781.151 239.151 780.531 240.747 780.696 241.99M680.377 332.652C679.603 331.821 678.435 331.449 677.301 331.412C676.682 331.391 676.038 331.468 675.511 331.791C675.033 332.084 674.688 332.559 674.465 333.073C673.459 335.4 675.524 338.488 678.052 338.297C680.581 338.107 682.104 334.507 680.377 332.652M729.561 292.955C730.644 292.897 731.609 291.948 731.683 290.865C731.718 290.348 731.568 289.82 731.266 289.4C730.36 288.14 728.086 288.341 727.416 289.74C726.745 291.138 728.012 293.037 729.561 292.955M740.441 257.291C740.864 257.552 741.319 257.822 741.815 257.806C742.312 257.79 742.825 257.349 742.718 256.864C740.792 255.091 738.865 253.318 736.938 251.545C736.438 252.669 736.817 254.029 737.57 255.003C738.324 255.976 739.394 256.644 740.441 257.291M771.135 290.612C771.886 291.261 773.088 290.148 772.884 289.177C772.681 288.205 771.745 287.593 770.889 287.09C770.033 286.588 769.096 285.981 768.884 285.011C767.642 286.843 769.462 289.164 771.135 290.612L771.135 290.612Z" fill="#00160A"/>
</svg>
