<svg width="102" height="31" viewBox="0 0 102 31" fill="none" xmlns="http://www.w3.org/2000/svg">
<path d="M0 30.6563V31H92.7182L102 0H9.31541L0.486876 30.7781L0 30.6563Z" fill="#E8F9FD"/>
<circle cx="31" cy="9" r="4" fill="#79DAE8"/>
<path d="M39.448 20L41.268 10.844H46.518L46.266 12.118H42.514L41.982 14.82H45.16L44.908 16.094H41.744L40.96 20H39.448ZM48.7509 20.168C47.9856 20.168 47.3649 19.916 46.8889 19.412C46.4222 18.8987 46.1889 18.2173 46.1889 17.368C46.1889 16.7053 46.2962 16.108 46.5109 15.576C46.7256 15.0347 47.0149 14.568 47.3789 14.176C47.7429 13.784 48.1489 13.4853 48.5969 13.28C49.0449 13.0653 49.5022 12.958 49.9689 12.958C50.7436 12.958 51.3642 13.21 51.8309 13.714C52.3069 14.218 52.5449 14.8993 52.5449 15.758C52.5449 16.4113 52.4376 17.0087 52.2229 17.55C52.0082 18.0913 51.7189 18.558 51.3549 18.95C50.9909 19.342 50.5849 19.6453 50.1369 19.86C49.6889 20.0653 49.2269 20.168 48.7509 20.168ZM48.9189 18.95C49.2829 18.95 49.6236 18.81 49.9409 18.53C50.2676 18.25 50.5289 17.872 50.7249 17.396C50.9209 16.92 51.0189 16.388 51.0189 15.8C51.0189 15.2773 50.9162 14.876 50.7109 14.596C50.5056 14.316 50.2069 14.176 49.8149 14.176C49.4509 14.176 49.1056 14.316 48.7789 14.596C48.4616 14.876 48.2002 15.254 47.9949 15.73C47.7989 16.1967 47.7009 16.724 47.7009 17.312C47.7009 17.8253 47.8036 18.2267 48.0089 18.516C48.2142 18.8053 48.5176 18.95 48.9189 18.95ZM53.3627 20L54.7487 13.126H55.9667L55.9107 14.092H55.9667C56.3214 13.784 56.69 13.518 57.0727 13.294C57.4647 13.07 57.8754 12.958 58.3047 12.958C58.8834 12.958 59.2987 13.112 59.5507 13.42C59.8027 13.7187 59.9287 14.1433 59.9287 14.694C59.9287 14.8527 59.9194 15.0067 59.9007 15.156C59.8914 15.3053 59.8634 15.4733 59.8167 15.66L58.9487 20H57.4507L58.2907 15.856C58.3187 15.6973 58.342 15.562 58.3607 15.45C58.3887 15.338 58.4027 15.2307 58.4027 15.128C58.4027 14.54 58.1134 14.246 57.5347 14.246C57.3014 14.246 57.0447 14.33 56.7647 14.498C56.4847 14.666 56.1627 14.9367 55.7987 15.31L54.8747 20H53.3627ZM63.3176 20.168C62.6736 20.168 62.2116 20.0093 61.9316 19.692C61.6609 19.3653 61.5256 18.964 61.5256 18.488C61.5256 18.348 61.5349 18.2127 61.5536 18.082C61.5722 17.9513 61.5909 17.816 61.6096 17.676L62.3096 14.316H61.3436L61.5676 13.196L62.6176 13.126L63.1636 11.278H64.4236L64.0596 13.126H65.7116L65.4736 14.316H63.7936L63.0936 17.732C63.0656 17.9 63.0516 18.0633 63.0516 18.222C63.0516 18.474 63.1122 18.6653 63.2336 18.796C63.3549 18.9173 63.5602 18.978 63.8496 18.978C63.9709 18.978 64.0829 18.9593 64.1856 18.922C64.2976 18.8847 64.4002 18.8427 64.4936 18.796L64.7736 19.86C64.6056 19.9253 64.4002 19.9907 64.1576 20.056C63.9149 20.1307 63.6349 20.168 63.3176 20.168ZM67.7654 20.168C67.3361 20.168 66.8927 20.0513 66.4354 19.818C65.9781 19.5753 65.6187 19.2533 65.3574 18.852L66.2534 18.124C66.4774 18.4133 66.7247 18.642 66.9954 18.81C67.2754 18.9687 67.5694 19.048 67.8774 19.048C68.2041 19.048 68.4841 18.964 68.7174 18.796C68.9601 18.628 69.0814 18.4133 69.0814 18.152C69.0814 17.9373 68.9834 17.7507 68.7874 17.592C68.5914 17.4333 68.2601 17.2233 67.7934 16.962C67.3921 16.738 67.0561 16.4767 66.7854 16.178C66.5147 15.87 66.3794 15.5107 66.3794 15.1C66.3794 14.68 66.4914 14.3113 66.7154 13.994C66.9394 13.6673 67.2381 13.4153 67.6114 13.238C67.9847 13.0513 68.3954 12.958 68.8434 12.958C69.3007 12.958 69.7114 13.0513 70.0754 13.238C70.4394 13.4153 70.7567 13.6533 71.0274 13.952L70.1734 14.736C70.0054 14.5493 69.8094 14.3953 69.5854 14.274C69.3614 14.1527 69.1094 14.092 68.8294 14.092C68.5214 14.092 68.2694 14.176 68.0734 14.344C67.8867 14.512 67.7934 14.7173 67.7934 14.96C67.7934 15.2027 67.9147 15.4033 68.1574 15.562C68.4094 15.7113 68.6801 15.87 68.9694 16.038C69.4641 16.3087 69.8421 16.5887 70.1034 16.878C70.3647 17.158 70.4954 17.522 70.4954 17.97C70.4954 18.4087 70.3741 18.796 70.1314 19.132C69.8981 19.4587 69.5761 19.7153 69.1654 19.902C68.7547 20.0793 68.2881 20.168 67.7654 20.168ZM74.4446 20.168C73.6233 20.168 72.9559 19.916 72.4426 19.412C71.9386 18.8987 71.6866 18.18 71.6866 17.256C71.6866 16.612 71.7939 16.0287 72.0086 15.506C72.2326 14.9833 72.5266 14.5307 72.8906 14.148C73.2546 13.7653 73.6559 13.4713 74.0946 13.266C74.5426 13.0607 74.9906 12.958 75.4386 12.958C75.9706 12.958 76.3953 13.07 76.7126 13.294C77.0299 13.518 77.2586 13.8213 77.3986 14.204C77.5479 14.5867 77.6226 15.016 77.6226 15.492C77.6226 15.7813 77.5853 16.0613 77.5106 16.332C77.4453 16.6027 77.3893 16.7987 77.3426 16.92H73.1426C73.0866 17.4147 73.1286 17.816 73.2686 18.124C73.4179 18.432 73.6279 18.6607 73.8986 18.81C74.1786 18.95 74.4913 19.02 74.8366 19.02C75.0793 19.02 75.3266 18.964 75.5786 18.852C75.8306 18.74 76.0499 18.614 76.2366 18.474L76.7966 19.44C76.5166 19.636 76.1759 19.8087 75.7746 19.958C75.3826 20.098 74.9393 20.168 74.4446 20.168ZM73.2686 15.968H76.3066C76.3253 15.8747 76.3393 15.7813 76.3486 15.688C76.3673 15.5947 76.3766 15.4967 76.3766 15.394C76.3766 15.058 76.2926 14.764 76.1246 14.512C75.9659 14.2507 75.6766 14.12 75.2566 14.12C74.8459 14.12 74.4539 14.2833 74.0806 14.61C73.7073 14.9367 73.4366 15.3893 73.2686 15.968ZM81.2805 20.168C80.4592 20.168 79.7919 19.916 79.2785 19.412C78.7745 18.8987 78.5225 18.18 78.5225 17.256C78.5225 16.612 78.6299 16.0287 78.8445 15.506C79.0685 14.9833 79.3625 14.5307 79.7265 14.148C80.0905 13.7653 80.4919 13.4713 80.9305 13.266C81.3785 13.0607 81.8265 12.958 82.2745 12.958C82.8065 12.958 83.2312 13.07 83.5485 13.294C83.8659 13.518 84.0945 13.8213 84.2345 14.204C84.3839 14.5867 84.4585 15.016 84.4585 15.492C84.4585 15.7813 84.4212 16.0613 84.3465 16.332C84.2812 16.6027 84.2252 16.7987 84.1785 16.92H79.9785C79.9225 17.4147 79.9645 17.816 80.1045 18.124C80.2539 18.432 80.4639 18.6607 80.7345 18.81C81.0145 18.95 81.3272 19.02 81.6725 19.02C81.9152 19.02 82.1625 18.964 82.4145 18.852C82.6665 18.74 82.8859 18.614 83.0725 18.474L83.6325 19.44C83.3525 19.636 83.0119 19.8087 82.6105 19.958C82.2185 20.098 81.7752 20.168 81.2805 20.168ZM80.1045 15.968H83.1425C83.1612 15.8747 83.1752 15.7813 83.1845 15.688C83.2032 15.5947 83.2125 15.4967 83.2125 15.394C83.2125 15.058 83.1285 14.764 82.9605 14.512C82.8019 14.2507 82.5125 14.12 82.0925 14.12C81.6819 14.12 81.2899 14.2833 80.9165 14.61C80.5432 14.9367 80.2725 15.3893 80.1045 15.968Z" fill="#333333"/>
<path d="M16.77 13.042L16.854 12.762H21.488L21.404 13.042H16.77ZM21.88 9.304C21.7307 9.304 21.5953 9.332 21.474 9.388C21.3527 9.43467 21.2407 9.5 21.138 9.584C21.0167 9.696 20.9047 9.85467 20.802 10.06C20.7087 10.256 20.62 10.494 20.536 10.774C20.452 11.0447 20.368 11.348 20.284 11.684L17.4 22.436C17.008 22.4453 16.6487 22.464 16.322 22.492C15.9953 22.52 15.678 22.5667 15.37 22.632L17.988 12.888C18.1933 12.0947 18.4267 11.4413 18.688 10.928C18.9587 10.4053 19.276 9.99467 19.64 9.696C19.9107 9.48133 20.2093 9.32267 20.536 9.22C20.872 9.108 21.2313 9.052 21.614 9.052C22.202 9.052 22.6547 9.17333 22.972 9.416C23.2987 9.65867 23.462 9.98533 23.462 10.396C23.462 10.5827 23.406 10.774 23.294 10.97C23.1913 11.1567 23.042 11.3107 22.846 11.432C22.6593 11.5533 22.4353 11.614 22.174 11.614C21.9033 11.614 21.684 11.5487 21.516 11.418C21.3573 11.2873 21.278 11.1007 21.278 10.858C21.278 10.55 21.3713 10.2747 21.558 10.032C21.754 9.78933 22.02 9.60733 22.356 9.486C22.3093 9.43933 22.244 9.39733 22.16 9.36C22.0853 9.32267 21.992 9.304 21.88 9.304ZM25.1098 13.042L25.1938 12.762H29.8278L29.7438 13.042H25.1098ZM30.2198 9.304C30.0705 9.304 29.9352 9.332 29.8138 9.388C29.6925 9.43467 29.5805 9.5 29.4778 9.584C29.3565 9.696 29.2445 9.85467 29.1418 10.06C29.0485 10.256 28.9598 10.494 28.8758 10.774C28.7918 11.0447 28.7078 11.348 28.6238 11.684L25.7398 22.436C25.3478 22.4453 24.9885 22.464 24.6618 22.492C24.3352 22.52 24.0178 22.5667 23.7098 22.632L26.3278 12.888C26.5332 12.0947 26.7665 11.4413 27.0278 10.928C27.2985 10.4053 27.6158 9.99467 27.9798 9.696C28.2505 9.48133 28.5492 9.32267 28.8758 9.22C29.2118 9.108 29.5712 9.052 29.9538 9.052C30.5418 9.052 30.9945 9.17333 31.3118 9.416C31.6385 9.65867 31.8018 9.98533 31.8018 10.396C31.8018 10.5827 31.7458 10.774 31.6338 10.97C31.5312 11.1567 31.3818 11.3107 31.1858 11.432C30.9992 11.5533 30.7752 11.614 30.5138 11.614C30.2432 11.614 30.0238 11.5487 29.8558 11.418C29.6972 11.2873 29.6178 11.1007 29.6178 10.858C29.6178 10.55 29.7112 10.2747 29.8978 10.032C30.0938 9.78933 30.3598 9.60733 30.6958 9.486C30.6492 9.43933 30.5838 9.39733 30.4998 9.36C30.4252 9.32267 30.3318 9.304 30.2198 9.304Z" fill="black"/>
</svg>
